<?xml version="1.0" standalone="no"?>
<!DOCTYPE svg PUBLIC "-//W3C//DTD SVG 1.1//EN" "http://www.w3.org/Graphics/SVG/1.1/DTD/svg11.dtd" >
<svg>
<metadata>
Created by FontForge 20090914 at Sun Sep 22 21:44:31 2019
 By www-data
Copyright &#194;&#169; 2017 Maryam Soft. All rights reserved.
</metadata>
<defs>
<font id="Nian-Bold" horiz-adv-x="0" >
  <font-face 
    font-family="Nian-Bold"
    font-weight="400"
    font-stretch="normal"
    units-per-em="2048"
    panose-1="0 0 5 4 0 0 0 2 0 4"
    ascent="1638"
    descent="-410"
    bbox="-301.002 -912.006 2574 1790"
    underline-thickness="102"
    underline-position="-204"
    unicode-range="U+000A-U+FFFC"
  />
<missing-glyph horiz-adv-x="1169" 
d="M837 1170h-506v-997h506v997zM1050 1373v-1403h-932v1403h932z" />
    <glyph glyph-name="uniFEF5" unicode="&#xfedf;&#xfe82;" horiz-adv-x="934" arabic-form="isolated" 
d="M809 862c0 -57.333 -6.50098 -110.499 -19.501 -159.499s-31.833 -95.5 -56.5 -139.5c46.667 -62.667 79.167 -120 97.5 -172s27.5 -99.667 27.5 -143c0 -16.667 -3.66699 -36.167 -11 -58.5s-16.166 -44.5 -26.499 -66.5s-21.333 -41.833 -33 -59.5
s-21.5 -29.167 -29.5 -34.5c-28.667 -20.667 -69.667 -35.834 -123 -45.501s-112 -14.5 -176 -14.5c-40 0 -83.833 1.83301 -131.5 5.5s-94.167 8.83398 -139.5 15.501l-38 190c98 66 179 126.5 243 181.5s115.333 109.833 154 164.5c-52 52 -116.833 108.667 -194.5 170
s-171.834 129.666 -282.501 204.999l32 213c120.667 -82 223.334 -157.5 308.001 -226.5s155.667 -134.167 213 -195.5c12 46.667 18 96 18 148c0 16 -0.666992 39.667 -2 71s-3.33301 64.5 -6 99.5s-7.16699 69.833 -13.5 104.5s-13.5 63.667 -21.5 87l156 152
c12 -22 21.833 -52.5 29.5 -91.5s13.5 -81.667 17.5 -128s6.33301 -93.333 7 -141s1 -91.5 1 -131.5zM728.999 240.001c-8 30 -19.501 60.332 -34.501 90.999s-34.833 62.334 -59.5 95.001c-35.333 -39.333 -74.166 -77.833 -116.499 -115.5s-89.5 -75.5 -141.5 -113.5
c22 -1.33301 44.167 -2.33301 66.5 -3s43.833 -1 64.5 -1c61.333 0 110.5 4.33301 147.5 13s61.5 20 73.5 34zM42.998 1284c-9.33301 0 -17.8359 -0.667969 -25.5029 -2.00098s-16.167 -5.33301 -25.5 -12c0 -15.333 2.33301 -37.333 7 -66s10.334 -54.667 17.001 -78
l-108 -63c-6.66699 31.333 -11.834 61 -15.501 89s-5.5 51.667 -5.5 71c0 16 3.16699 33.333 9.5 52s14.166 36.5 23.499 53.5s19.166 32.667 29.499 47s19.5 24.833 27.5 31.5c12.667 10.667 25.834 18.834 39.501 24.501s31.5 8.5 53.5 8.5
c17.333 0 43.833 -3.16699 79.5 -9.5s75.834 -9.5 120.501 -9.5c42.667 0 81 2.83301 115 8.5s68.667 14.5 104 26.5l-24 -156c-27.333 -12 -60.166 -20.667 -98.499 -26s-77.166 -8 -116.499 -8c-52 0 -95.667 3 -131 9s-60.666 9 -75.999 9z" />
    <glyph glyph-name="uniFEF6" unicode="&#xfee0;&#xfe82;" horiz-adv-x="1071" arabic-form="final" 
d="M1044 0c-68 0 -122.504 11.9971 -163.504 35.9971s-72.5 57.667 -94.5 101c-34 -44.667 -97 -81.667 -189 -111s-205 -53 -339 -71l-108 213c40.667 2.66699 81.167 6 121.5 10s78.833 9.66699 115.5 17c-18 125.333 -47.667 254.833 -89 388.5
s-107.333 262.834 -198 387.501l121 159c54.667 -78.667 99.834 -157.667 135.501 -237s64.334 -157.5 86.001 -234.5s38.334 -152 50.001 -225s21.5 -143.833 29.5 -212.5c87.333 20.667 152.333 44 195 70c-4 146 -8.16699 269.833 -12.5 371.5
s-8.83301 187.334 -13.5 257.001s-10.667 126.334 -18 170.001s-16 81.167 -26 112.5l154 152c17.333 -28.667 29.5 -65.167 36.5 -109.5s11.167 -91.833 12.5 -142.5c2.66699 -50.667 5.33398 -105.667 8.00098 -165s4.66699 -120 6 -182s2.33301 -123.833 3 -185.5
s1 -119.834 1 -174.501c0 -47.333 14.667 -85.666 44 -114.999s82.333 -44 159 -44v-236h-27zM73.9961 1307c-10 0 -18.6689 -0.666016 -26.002 -1.99902s-15.666 -5.66602 -24.999 -12.999c0 -14.667 2.33301 -36.334 7 -65.001s10.334 -54.667 17.001 -78l-108 -64
c-7.33301 32 -12.666 62 -15.999 90s-5 51.333 -5 70c0 16.667 3.16699 34.167 9.5 52.5s14.166 36 23.499 53s19.166 32.667 29.499 47s19.5 25.166 27.5 32.499c12.667 10.667 25.834 18.667 39.501 24s31.167 8 52.5 8c18 0 44.667 -3 80 -9s75.666 -9 120.999 -9
c42.667 0 81 2.66699 115 8s68.667 14.333 104 27l-24 -156c-27.333 -12 -60.166 -20.833 -98.499 -26.5s-77.166 -8.5 -116.499 -8.5c-52 0 -95.833 3.16699 -131.5 9.5s-60.834 9.5 -75.501 9.5z" />
    <glyph glyph-name="uniFEF7" unicode="&#xfedf;&#xfe84;" horiz-adv-x="934" arabic-form="isolated" 
d="M141 1069c108 -69.333 201.331 -135.5 279.998 -198.5s146 -123.167 202 -180.5c12 46.667 18 96.667 18 150c0 16 -0.666992 39.667 -2 71s-3.33301 64.5 -6 99.5s-7.16699 69.833 -13.5 104.5s-13.5 63.667 -21.5 87l156 152c12 -22 21.833 -52.5 29.5 -91.5
s13.5 -81.667 17.5 -128s6.33301 -93.333 7 -141s1 -91.5 1 -131.5c0 -57.333 -6.5 -110.833 -19.5 -160.5s-31.833 -96.5 -56.5 -140.5c45.333 -61.333 77.5 -118 96.5 -170s28.5 -99.667 28.5 -143c0 -16.667 -3.66699 -36.167 -11 -58.5s-16.166 -44.5 -26.499 -66.5
s-21.333 -41.833 -33 -59.5s-21.5 -29.167 -29.5 -34.5c-28.667 -20.667 -69.667 -35.834 -123 -45.501s-112 -14.5 -176 -14.5c-40 0 -83.833 1.83301 -131.5 5.5s-94.167 8.83398 -139.5 15.501l-38 190c96.667 66 177.334 126.167 242.001 180.5
s116.334 108.833 155.001 163.5c-98.667 100 -248.334 214 -449.001 342zM728.998 240c-8 30 -19.5 60.333 -34.5 91s-34.833 61.667 -59.5 93c-35.333 -39.333 -74.5 -77.5 -117.5 -114.5s-89.833 -74.5 -140.5 -112.5c22 -1.33301 44.167 -2.33301 66.5 -3
s43.833 -1 64.5 -1c61.333 0 110.5 4.33301 147.5 13s61.5 20 73.5 34zM99.998 1221c-38 12 -63.5 30.3291 -76.5 54.9961s-19.5 44.334 -19.5 59.001c0 27.333 5.16699 54.333 15.5 81s23.666 50.334 39.999 71.001s35 37 56 49s42.5 18 64.5 18
c16.667 0 32.5 -3.66699 47.5 -11s28.5 -15.666 40.5 -24.999l-37 -93c-12 3.33301 -22.167 6.33301 -30.5 9s-15.166 4 -20.499 4c-20 0 -38.333 -7.5 -55 -22.5s-28.334 -32.167 -35.001 -51.5c8 -19.333 21.333 -32.666 40 -39.999s36.667 -11 54 -11
c4 0 10.5 0.666992 19.5 2s20.667 4.66602 35 9.99902s32.833 13.5 55.5 24.5s50.334 26.833 83.001 47.5v-129c-46.667 -23.333 -99.667 -54.166 -159 -92.499l-179 -118.5l-19 104z" />
    <glyph glyph-name="uniFEF8" unicode="&#xfee0;&#xfe84;" horiz-adv-x="1071" arabic-form="final" 
d="M1044 0c-68 0 -122.503 11.9971 -163.503 35.9971s-72.5 57.667 -94.5 101c-34 -44.667 -97 -81.667 -189 -111s-205 -53 -339 -71l-108 213c40.667 2.66699 81.167 6 121.5 10s78.833 9.66699 115.5 17c-18 124 -46 247.833 -84 371.5s-96 242.834 -174 357.501l127 149
c46.667 -69.333 85.334 -140.166 116.001 -212.499s55.834 -144.333 75.501 -216s35 -143 46 -214s20.5 -140.833 28.5 -209.5c42.667 11.333 80.667 22.666 114 33.999s60.333 23.333 81 36c-4 146 -8.16699 269.833 -12.5 371.5s-8.83301 187.334 -13.5 257.001
s-10.667 126.334 -18 170.001s-16 81.167 -26 112.5l154 152c17.333 -28.667 29.5 -65.167 36.5 -109.5s11.167 -91.833 12.5 -142.5c2.66699 -50.667 5.33398 -105.667 8.00098 -165s4.66699 -120 6 -182s2.33301 -123.833 3 -185.5s1 -119.834 1 -174.501
c0 -47.333 14.667 -85.666 44 -114.999s82.333 -44 159 -44v-236h-27zM120.997 1221c-38.667 12 -64.3311 30.3291 -76.998 54.9961s-19 44.334 -19 59.001c0 27.333 5 54.333 15 81s23.167 50.334 39.5 71.001s35.166 37 56.499 49s43 18 65 18
c16 0 31.5 -3.66699 46.5 -11s28.833 -15.666 41.5 -24.999l-37 -93c-12.667 3.33301 -23 6.33301 -31 9s-14.667 4 -20 4c-20.667 0 -39.167 -7.5 -55.5 -22.5s-27.833 -32.167 -34.5 -51.5c8 -19.333 21.167 -32.666 39.5 -39.999s36.5 -11 54.5 -11
c4 0 10.5 0.666992 19.5 2s20.667 4.66602 35 9.99902s32.666 13.5 54.999 24.5s49.833 26.833 82.5 47.5v-129c-46 -23.333 -98.667 -54.166 -158 -92.499l-180 -118.5l-18 104z" />
    <glyph glyph-name="uniFEF9" unicode="&#xfedf;&#xfe88;" horiz-adv-x="934" arabic-form="isolated" 
d="M809 862c0 -57.333 -6.50098 -110.499 -19.501 -159.499s-31.833 -95.5 -56.5 -139.5c46.667 -62.667 79.167 -120 97.5 -172s27.5 -99.667 27.5 -143c0 -16.667 -3.66699 -36.167 -11 -58.5s-16.166 -44.5 -26.499 -66.5s-21.333 -41.833 -33 -59.5
s-21.5 -29.167 -29.5 -34.5c-28.667 -20.667 -69.667 -35.834 -123 -45.501s-112 -14.5 -176 -14.5c-40 0 -83.833 1.83301 -131.5 5.5s-94.167 8.83398 -139.5 15.501l-38 190c98 66 179 126.5 243 181.5s115.333 109.833 154 164.5c-52 52 -116.833 108.667 -194.5 170
s-171.834 129.666 -282.501 204.999l32 213c120.667 -82 223.334 -157.5 308.001 -226.5s155.667 -134.167 213 -195.5c12 46.667 18 96 18 148c0 16 -0.666992 39.667 -2 71s-3.33301 64.5 -6 99.5s-7.16699 69.833 -13.5 104.5s-13.5 63.667 -21.5 87l156 152
c12 -22 21.833 -52.5 29.5 -91.5s13.5 -81.667 17.5 -128s6.33301 -93.333 7 -141s1 -91.5 1 -131.5zM728.999 240.001c-8 30 -19.501 60.332 -34.501 90.999s-34.833 62.334 -59.5 95.001c-35.333 -39.333 -74.166 -77.833 -116.499 -115.5s-89.5 -75.5 -141.5 -113.5
c22 -1.33301 44.167 -2.33301 66.5 -3s43.833 -1 64.5 -1c61.333 0 110.5 4.33301 147.5 13s61.5 20 73.5 34zM198.998 -524c-38.667 12 -64.5 30.3291 -77.5 54.9961s-19.5 44.334 -19.5 59.001c0 27.333 5.16699 54.333 15.5 81s23.666 50.334 39.999 71.001
s35.166 37.167 56.499 49.5s43 18.5 65 18.5c16 0 31.5 -3.83301 46.5 -11.5s28.833 -16.167 41.5 -25.5l-37 -92c-12.667 2.66699 -23 5.33398 -31 8.00098s-14.667 4 -20 4c-20.667 0 -39.167 -7.5 -55.5 -22.5s-28.166 -32.167 -35.499 -51.5
c8.66699 -19.333 22.167 -32.666 40.5 -39.999s36.5 -11 54.5 -11c4 0 10.333 0.666992 19 2s20.167 4.66602 34.5 9.99902s32.833 13.5 55.5 24.5s50.334 26.833 83.001 47.5v-129c-46 -23.333 -98.833 -54.166 -158.5 -92.499l-179.5 -118.5l-18 104z" />
    <glyph glyph-name="uniFEFA" unicode="&#xfee0;&#xfe88;" horiz-adv-x="1071" arabic-form="final" 
d="M1044 0c-68 0 -122.501 12 -163.501 36s-72.5 57.667 -94.5 101c-34 -44.667 -97 -81.667 -189 -111s-205 -53 -339 -71l-108 213c40.667 2.66699 81.167 6 121.5 10s78.833 9.66699 115.5 17c-10.667 73.333 -23.834 146.166 -39.501 218.499
s-37.167 144.666 -64.5 216.999s-61.5 144.333 -102.5 216s-92.167 144.5 -153.5 218.5l110 174c74 -91.333 133.5 -179.666 178.5 -264.999s81.167 -169.666 108.5 -252.999s47.833 -166.333 61.5 -249s25.834 -166.334 36.501 -251.001
c42.667 11.333 80.667 22.666 114 33.999s60.333 23.333 81 36c-4 146 -8.16699 269.833 -12.5 371.5s-8.83301 187.334 -13.5 257.001s-10.667 126.334 -18 170.001s-16 81.167 -26 112.5l154 152c17.333 -28.667 29.5 -65.167 36.5 -109.5s11.167 -91.833 12.5 -142.5
c2.66699 -50.667 5.33398 -105.667 8.00098 -165s4.66699 -120 6 -182s2.33301 -123.833 3 -185.5s1 -119.834 1 -174.501c0 -47.333 14.667 -85.666 44 -114.999s82.333 -44 159 -44v-236h-27zM269.999 -524c-38 12 -63.501 30.3291 -76.501 54.9961
s-19.5 44.334 -19.5 59.001c0 27.333 5.16699 54.333 15.5 81s23.666 50.334 39.999 71.001s35 37.167 56 49.5s42.5 18.5 64.5 18.5c16.667 0 32.5 -3.83301 47.5 -11.5s28.5 -16.167 40.5 -25.5l-37 -92c-12 2.66699 -22.167 5.33398 -30.5 8.00098s-15.166 4 -20.499 4
c-20.667 0 -39.167 -7.5 -55.5 -22.5s-27.833 -32.167 -34.5 -51.5c8 -19.333 21.333 -32.666 40 -39.999s36.667 -11 54 -11c4 0 10.5 0.666992 19.5 2s20.667 4.66602 35 9.99902s32.833 13.5 55.5 24.5s50.334 26.833 83.001 47.5v-129
c-46.667 -23.333 -99.667 -54.166 -159 -92.499l-179 -118.5l-19 104z" />
    <glyph glyph-name="uniFEFB" unicode="&#xfedf;&#xfe8e;" horiz-adv-x="934" arabic-form="isolated" 
d="M809 862c0 -57.333 -6.50098 -110.499 -19.501 -159.499s-31.833 -95.5 -56.5 -139.5c46.667 -62.667 79.167 -120 97.5 -172s27.5 -99.667 27.5 -143c0 -16.667 -3.66699 -36.167 -11 -58.5s-16.166 -44.5 -26.499 -66.5s-21.333 -41.833 -33 -59.5
s-21.5 -29.167 -29.5 -34.5c-28.667 -20.667 -69.667 -35.834 -123 -45.501s-112 -14.5 -176 -14.5c-40 0 -83.833 1.83301 -131.5 5.5s-94.167 8.83398 -139.5 15.501l-38 190c98 66 179 126.5 243 181.5s115.333 109.833 154 164.5c-52 52 -116.833 108.667 -194.5 170
s-171.834 129.666 -282.501 204.999l32 213c120.667 -82 223.334 -157.5 308.001 -226.5s155.667 -134.167 213 -195.5c12 46.667 18 96 18 148c0 16 -0.666992 39.667 -2 71s-3.33301 64.5 -6 99.5s-7.16699 69.833 -13.5 104.5s-13.5 63.667 -21.5 87l156 152
c12 -22 21.833 -52.5 29.5 -91.5s13.5 -81.667 17.5 -128s6.33301 -93.333 7 -141s1 -91.5 1 -131.5zM728.999 240.001c-8 30 -19.501 60.332 -34.501 90.999s-34.833 62.334 -59.5 95.001c-35.333 -39.333 -74.166 -77.833 -116.499 -115.5s-89.5 -75.5 -141.5 -113.5
c22 -1.33301 44.167 -2.33301 66.5 -3s43.833 -1 64.5 -1c61.333 0 110.5 4.33301 147.5 13s61.5 20 73.5 34z" />
    <glyph glyph-name="uniFEFC" unicode="&#xfee0;&#xfe8e;" horiz-adv-x="1071" arabic-form="final" 
d="M1044 0c-68 0 -122.501 12 -163.501 36s-72.5 57.667 -94.5 101c-34 -44.667 -97 -81.667 -189 -111s-205 -53 -339 -71l-108 213c40.667 2.66699 81.167 6 121.5 10s78.833 9.66699 115.5 17c-10.667 73.333 -23.834 146.166 -39.501 218.499
s-37.167 144.666 -64.5 216.999s-61.5 144.333 -102.5 216s-92.167 144.5 -153.5 218.5l110 174c74 -91.333 133.5 -179.666 178.5 -264.999s81.167 -169.666 108.5 -252.999s47.833 -166.333 61.5 -249s25.834 -166.334 36.501 -251.001
c42.667 11.333 80.667 22.666 114 33.999s60.333 23.333 81 36c-4 146 -8.16699 269.833 -12.5 371.5s-8.83301 187.334 -13.5 257.001s-10.667 126.334 -18 170.001s-16 81.167 -26 112.5l154 152c17.333 -28.667 29.5 -65.167 36.5 -109.5s11.167 -91.833 12.5 -142.5
c2.66699 -50.667 5.33398 -105.667 8.00098 -165s4.66699 -120 6 -182s2.33301 -123.833 3 -185.5s1 -119.834 1 -174.501c0 -47.333 14.667 -85.666 44 -114.999s82.333 -44 159 -44v-236h-27z" />
    <glyph glyph-name="uni0621" unicode="&#x621;" horiz-adv-x="788" arabic-form="isolated" 
d="M106 82l141.997 118.999c-36.667 13.333 -66.334 30.666 -89.001 51.999s-40.167 42.5 -52.5 63.5s-20.5 41.5 -24.5 61.5s-6 36 -6 48c0 42 8.16699 86 24.5 132s38.166 87.333 65.499 124s58.666 67 93.999 91s72.333 36 111 36c27.333 0 56 -6.83301 86 -20.5
s62 -32.167 96 -55.5l-76 -145c-22 6.66699 -43.167 12 -63.5 16s-35.833 6 -46.5 6c-27.333 0 -55.666 -15.333 -84.999 -46s-49.666 -65 -60.999 -103c2.66699 -15.333 9.83398 -29.166 21.501 -41.499s25.334 -23.5 41.001 -33.5s32.334 -17.833 50.001 -23.5
s34.834 -8.5 51.501 -8.5c12 0 25.667 1.83301 41 5.5s34.5 10.5 57.5 20.5s52.333 24.667 88 44l133.5 76l18 -201c-82 -46.667 -171.5 -100.667 -268.5 -162s-191.167 -126.666 -282.5 -195.999z" />
    <glyph glyph-name="uni0622" unicode="&#x622;" horiz-adv-x="354" arabic-form="isolated" 
d="M86 821c-4 35.333 -9.16797 69.165 -15.501 101.498s-12.833 59.5 -19.5 81.5l154 151c14.667 -26 26.5 -60.5 35.5 -103.5s15.833 -90.833 20.5 -143.5s7.66699 -107.667 9 -165s2 -112.333 2 -165v-170.5c0 -50.333 -0.666992 -97.666 -2 -141.999
s-3.66602 -87.666 -6.99902 -129.999s-9 -86.833 -17 -133.5l-125 -31c-2.66699 208 -7.16699 383.333 -13.5 526s-13.5 250.667 -21.5 324zM9.99902 1307c-9.33301 0 -17.8359 -0.666016 -25.5029 -1.99902s-16.167 -5.66602 -25.5 -12.999
c0 -14.667 2.33301 -36.334 7 -65.001s10.667 -54.667 18 -78l-109 -64c-6.66699 32 -11.667 62 -15 90s-5 51.333 -5 70c0 16.667 3 34.167 9 52.5s13.833 36 23.5 53s19.5 32.667 29.5 47s19.333 25.166 28 32.499c12 10.667 24.833 18.667 38.5 24s31.5 8 53.5 8
c17.333 0 43.833 -3 79.5 -9s76.167 -9 121.5 -9c42 0 80 2.66699 114 8s69 14.333 105 27l-25 -156c-27.333 -12 -60.166 -20.833 -98.499 -26.5s-77.166 -8.5 -116.499 -8.5c-52 0 -95.667 3.16699 -131 9.5s-60.666 9.5 -75.999 9.5z" />
    <glyph glyph-name="uni0623" unicode="&#x623;" horiz-adv-x="352" arabic-form="isolated" 
d="M88 725c-4 35.333 -9.83398 69 -17.501 101s-14.834 59 -21.501 81l154 152c14.667 -26 26.5 -59.833 35.5 -101.5s15.5 -87 19.5 -136s6.66699 -99.833 8 -152.5s2 -102.334 2 -149.001v-163.5c0 -46.333 -0.666992 -88.666 -2 -126.999
s-3.66602 -74.833 -6.99902 -109.5s-8.33301 -72.667 -15 -114l-125 -31c-1.33301 98.667 -2.66602 186.5 -3.99902 263.5s-3.5 145.167 -6.5 204.5s-6.16699 112 -9.5 158s-7 87.333 -11 124zM46.999 1212c-38 12.667 -63.498 31.332 -76.498 55.999
s-19.5 44.334 -19.5 59.001c0 27.333 5.16699 54.333 15.5 81s23.666 50.167 39.999 70.5s35 36.666 56 48.999s42.5 18.5 64.5 18.5c16.667 0 32.5 -3.66699 47.5 -11s28.5 -16 40.5 -26l-37 -92c-12 2.66699 -22.167 5.5 -30.5 8.5s-15.166 4.5 -20.499 4.5
c-20.667 0 -39.167 -7.66699 -55.5 -23s-27.833 -32.333 -34.5 -51c8 -19.333 21.167 -32.666 39.5 -39.999s36.5 -11 54.5 -11c4 0 10.5 0.666992 19.5 2s20.667 4.66602 35 9.99902s32.666 13.5 54.999 24.5s50.166 26.833 83.499 47.5v-129
c-46.667 -23.333 -99.667 -54.166 -159 -92.499l-179 -118.5l-19 104z" />
    <glyph glyph-name="uni0624" unicode="&#x624;" horiz-adv-x="811" arabic-form="isolated" 
d="M385 682c62.667 0 116.168 -20.1689 160.501 -60.502s80.5 -90.166 108.5 -149.499s48.5 -123.166 61.5 -191.499s19.5 -131.166 19.5 -188.499c0 -82 -15.333 -157.5 -46 -226.5s-68.167 -128.333 -112.5 -178s-91.5 -88.834 -141.5 -117.501s-94 -43 -132 -43
c-8 0 -22 3 -42 9s-42.167 13.5 -66.5 22.5s-50.833 19.667 -79.5 32l-82 36.5l41 135c32.667 -6.66699 68.167 -11.667 106.5 -15s68.833 -5.66602 91.5 -6.99902c28.667 1.33301 60.5 10.833 95.5 28.5s68.5 40.167 100.5 67.5s60.667 58.5 86 93.5s44 70.833 56 107.5
c0 1.33301 -0.333008 2.66602 -1 3.99902s-1 3.33301 -1 6c-35.333 -14.667 -75.833 -26.167 -121.5 -34.5s-93.834 -12.5 -144.501 -12.5c-75.333 0 -133.833 16.667 -175.5 50s-62.5 82.333 -62.5 147c0 30 3.5 62 10.5 96s15.833 70 26.5 108
c22 86 53.5 154.333 94.5 205s90.833 76 149.5 76zM367.001 226.998c28.667 0 60.332 1.83301 94.999 5.5s68.334 8.83398 101.001 15.501c-23.333 65.333 -51.666 119.166 -84.999 161.499s-70.333 63.5 -111 63.5c-22 0 -40.833 -6.5 -56.5 -19.5s-28.334 -29 -38.001 -48
s-16.5 -38.833 -20.5 -59.5s-6 -38.334 -6 -53.001c0 -19.333 8.83301 -35.166 26.5 -47.499s49.167 -18.5 94.5 -18.5zM288.999 947.998c-38.667 12.667 -64.3311 31.168 -76.998 55.501s-19 44.166 -19 59.499c0 27.333 5 54.333 15 81s23.167 50.167 39.5 70.5
s35.166 36.666 56.499 48.999s43 18.5 65 18.5c16 0 31.5 -3.66699 46.5 -11s28.833 -16 41.5 -26l-37 -92c-12.667 2.66699 -23 5.33398 -31 8.00098s-14.667 4 -20 4c-20.667 0 -39.167 -7.5 -55.5 -22.5s-27.833 -31.833 -34.5 -50.5
c8 -19.333 21.167 -32.833 39.5 -40.5s36.5 -11.5 54.5 -11.5c4 0 10.5 0.666992 19.5 2s20.667 4.83301 35 10.5s32.666 14 54.999 25s49.833 26.5 82.5 46.5v-129c-46 -22.667 -98.833 -53.167 -158.5 -91.5l-179.5 -119.5l-18 105z" />
    <glyph glyph-name="uni0625" unicode="&#x625;" horiz-adv-x="369" arabic-form="isolated" 
d="M84 1020c-4 35.333 -8.82812 69.0039 -14.4951 101.004s-12.5 59 -20.5 81l156 152c13.333 -24.667 24.166 -59.834 32.499 -105.501s15.166 -98.334 20.499 -158.001s9 -122.834 11 -189.501s3.33301 -132.834 4 -198.501s1 -128.167 1 -187.5v-155
c0 -69.333 -1.33301 -131.333 -4 -186s-9.33398 -112 -20.001 -172l-125 -31c-1.33301 112 -3.33301 222.667 -6 332s-5.83398 211.166 -9.50098 305.499s-7.83398 177.333 -12.501 249s-9 125.834 -13 162.501zM111.005 -499.996
c-38.667 12.667 -64.499 31.168 -77.499 55.501s-19.5 44.166 -19.5 59.499c0 27.333 5.16699 54.333 15.5 81s23.666 50.167 39.999 70.5s35.166 36.666 56.499 48.999s42.666 18.5 63.999 18.5c16.667 0 32.5 -3.66699 47.5 -11s28.833 -16 41.5 -26l-37 -92
c-12.667 2.66699 -23 5.33398 -31 8.00098s-15 4 -21 4c-20 0 -38.167 -7.5 -54.5 -22.5s-28.166 -31.833 -35.499 -50.5c8.66699 -19.333 22.167 -32.833 40.5 -40.5s36.5 -11.5 54.5 -11.5c4 0 10.333 0.833008 19 2.5s20.167 5.16699 34.5 10.5s32.833 13.5 55.5 24.5
s50.334 26.5 83.001 46.5v-129c-46.667 -22.667 -99.667 -53.167 -159 -91.5l-179 -119.5l-18 105z" />
    <glyph glyph-name="uni0626" unicode="&#x626;" horiz-adv-x="1300" arabic-form="isolated" 
d="M543 -309c-102.667 0 -186.001 13.668 -250.001 41.001s-111 59.333 -141 96c-27.333 32.667 -46.5 72.834 -57.5 120.501s-16.5 101.834 -16.5 162.501c0 77.333 10.167 156.333 30.5 237s46.166 158 77.499 232l121 -45c-23.333 -67.333 -41 -132.333 -53 -195
s-18 -116 -18 -160c0 -39.333 3.33301 -72.333 10 -99s15.334 -48.334 26.001 -65.001c15.333 -24 50 -44.667 104 -62s116.333 -26 187 -26c41.333 0 83.833 2.16699 127.5 6.5s87 11.166 130 20.499s83.5 21.166 121.5 35.499s72 31.833 102 52.5
c-8 10.667 -18.167 20.167 -30.5 28.5s-29 16.666 -50 24.999s-48.667 16.833 -83 25.5s-76.5 20 -126.5 34c-36 9.33301 -64.167 20.166 -84.5 32.499s-36 26 -47 41s-18.167 30.333 -21.5 46s-5 31.834 -5 48.501c0 56 12.667 114.333 38 175s58.166 116.167 98.499 166.5
s84.666 92 132.999 125s95.833 49.5 142.5 49.5c35.333 0 71 -12 107 -36s74 -58 114 -102l-109 -145c-23.333 19.333 -45.833 34.833 -67.5 46.5s-42.167 17.5 -61.5 17.5c-16 0 -35 -4.16699 -57 -12.5s-44.167 -21.666 -66.5 -39.999s-44.166 -41.833 -65.499 -70.5
s-40.333 -63.667 -57 -105c12.667 -20.667 46.667 -37.667 102 -51s125.333 -31.666 210 -54.999c58.667 -18 97.834 -42 117.501 -72s29.5 -67 29.5 -111c0 -17.333 -2.66699 -37.333 -8 -60s-12.166 -44.834 -20.499 -66.501s-16.833 -41 -25.5 -58s-16 -28.5 -22 -34.5
c-27.333 -27.333 -62 -52.833 -104 -76.5s-89 -44.167 -141 -61.5s-107 -31 -165 -41s-116.333 -15 -175 -15zM370.999 846.001c-38.667 12 -64.5 30.3311 -77.5 54.998s-19.5 44.667 -19.5 60c0 26.667 5.16699 53.334 15.5 80.001s23.666 50.334 39.999 71.001
s35.166 37.167 56.499 49.5s43 18.5 65 18.5c16 0 31.5 -3.83301 46.5 -11.5s28.833 -16.167 41.5 -25.5l-37 -92c-12.667 2.66699 -23 5.33398 -31 8.00098s-14.667 4 -20 4c-20.667 0 -39.167 -7.5 -55.5 -22.5s-28.166 -32.167 -35.499 -51.5
c8.66699 -18.667 22.167 -31.834 40.5 -39.501s36.5 -11.5 54.5 -11.5c4 0 10.333 0.666992 19 2s20.167 4.66602 34.5 9.99902s32.833 13.5 55.5 24.5s50.334 26.833 83.001 47.5v-129c-46 -23.333 -98.833 -54.166 -158.5 -92.499l-179.5 -118.5l-18 104z" />
    <glyph glyph-name="uni0627" unicode="&#x627;" horiz-adv-x="369" arabic-form="isolated" 
d="M84 1020c-4 35.333 -8.82812 69.0039 -14.4951 101.004s-12.5 59 -20.5 81l156 152c13.333 -24.667 24.166 -59.834 32.499 -105.501s15.166 -98.334 20.499 -158.001s9 -122.834 11 -189.501s3.33301 -132.834 4 -198.501s1 -128.167 1 -187.5v-155
c0 -69.333 -1.33301 -131.333 -4 -186s-9.33398 -112 -20.001 -172l-125 -31c-1.33301 112 -3.33301 222.667 -6 332s-5.83398 211.166 -9.50098 305.499s-7.83398 177.333 -12.501 249s-9 125.834 -13 162.501z" />
    <glyph glyph-name="uni0628" unicode="&#x628;" horiz-adv-x="1548" arabic-form="isolated" 
d="M672 205c57.333 0 115.998 1.66895 175.998 5.00195s118.667 8.5 176 15.5s111.333 15.5 162 25.5s94.334 22 131.001 36c-9.33301 64 -25.333 129.5 -48 196.5s-45.667 121.5 -69 163.5l162 137c18 -35.333 33.833 -72.5 47.5 -111.5s25.167 -77.833 34.5 -116.5
s16.5 -76.167 21.5 -112.5s7.5 -69.5 7.5 -99.5c0 -18 -4.16699 -39.5 -12.5 -64.5s-18.666 -49.833 -30.999 -74.5s-25 -47.334 -38 -68.001s-23.5 -35 -31.5 -43c-19.333 -14.667 -52.5 -29.5 -99.5 -44.5s-103.333 -28.667 -169 -41s-137.667 -22.333 -216 -30
s-158.5 -11.5 -240.5 -11.5c-121.333 0 -225 10 -311 30s-147 50.333 -183 91c-23.333 28.667 -39.666 64.5 -48.999 107.5s-14 84.167 -14 123.5c0 115.333 25.333 239.666 76 372.999l118 -39c-10.667 -42 -19.834 -86.167 -27.501 -132.5s-11.5 -88.833 -11.5 -127.5
c0 -18.667 1.5 -36.667 4.5 -54s7.83301 -31.333 14.5 -42c9.33301 -16.667 28 -30.667 56 -42s61.5 -20.833 100.5 -28.5s81.333 -13.167 127 -16.5s91.167 -5 136.5 -5zM787.998 -482.998c-20 17.333 -47.833 36.667 -83.5 58l-100.5 58l101 177
c38 -15.333 73.333 -33.5 106 -54.5s60.667 -42.5 84 -64.5z" />
    <glyph glyph-name="uni0629" unicode="&#x629;" horiz-adv-x="795" arabic-form="isolated" 
d="M250 889c164 -97.333 283.168 -199.503 357.501 -306.503s111.5 -208.167 111.5 -303.5c0 -15.333 -3.16699 -34.666 -9.5 -57.999s-14.166 -46.166 -23.499 -68.499s-19.833 -43.166 -31.5 -62.499s-22.167 -33 -31.5 -41
c-28.667 -23.333 -69.334 -42.833 -122.001 -58.5s-105 -23.5 -157 -23.5c-90 0 -157.167 21.5 -201.5 64.5s-66.5 104.167 -66.5 183.5c0 57.333 13.667 121.5 41 192.5s69.666 150.167 126.999 237.5l-78 51zM575.001 253.997c-10.667 52 -35.167 103.831 -73.5 155.498
s-88.166 102.834 -149.499 153.501c-43.333 -61.333 -74.333 -113.166 -93 -155.499s-28 -77.833 -28 -106.5c0 -30 11.667 -53.5 35 -70.5s57.666 -25.5 102.999 -25.5c28.667 0 63 3.66699 103 11s74.333 20 103 38zM262.001 966.995
c-22 17.333 -50.333 36.666 -85 57.999s-67.667 40 -99 56l100 176c36.667 -14.667 71.5 -32.167 104.5 -52.5s61.167 -42.166 84.5 -65.499zM537.001 972.995c-22 17.333 -50.833 36.665 -86.5 57.998s-68.5 40 -98.5 56l99 177c38 -15.333 73.333 -33.166 106 -53.499
s60.667 -42.166 84 -65.499z" />
    <glyph glyph-name="uni062A" unicode="&#x62a;" horiz-adv-x="1548" arabic-form="isolated" 
d="M672 205c57.333 0 115.998 1.66895 175.998 5.00195s118.667 8.5 176 15.5s111.333 15.5 162 25.5s94.334 22 131.001 36c-9.33301 64 -25.333 129.5 -48 196.5s-45.667 121.5 -69 163.5l162 137c18 -35.333 33.833 -72.5 47.5 -111.5s25.167 -77.833 34.5 -116.5
s16.5 -76.167 21.5 -112.5s7.5 -69.5 7.5 -99.5c0 -18 -4.16699 -39.5 -12.5 -64.5s-18.666 -49.833 -30.999 -74.5s-25 -47.334 -38 -68.001s-23.5 -35 -31.5 -43c-19.333 -14.667 -52.5 -29.5 -99.5 -44.5s-103.333 -28.667 -169 -41s-137.667 -22.333 -216 -30
s-158.5 -11.5 -240.5 -11.5c-121.333 0 -225 10 -311 30s-147 50.333 -183 91c-23.333 28.667 -39.666 64.5 -48.999 107.5s-14 84.167 -14 123.5c0 115.333 25.333 239.666 76 372.999l118 -39c-10.667 -42 -19.834 -86.167 -27.501 -132.5s-11.5 -88.833 -11.5 -127.5
c0 -18.667 1.5 -36.667 4.5 -54s7.83301 -31.333 14.5 -42c9.33301 -16.667 28 -30.667 56 -42s61.5 -20.833 100.5 -28.5s81.333 -13.167 127 -16.5s91.167 -5 136.5 -5zM652.998 614.002c-21.333 18 -49.5 37.668 -84.5 59.001s-68.167 40 -99.5 56l100 176
c37.333 -14.667 72.333 -32.334 105 -53.001s60.667 -42.667 84 -66zM927.998 621.003c-22 17.333 -50.833 36.6689 -86.5 58.002s-68.5 40 -98.5 56l99 176c38 -14.667 73.333 -32.334 106 -53.001s60.667 -42.334 84 -65.001z" />
    <glyph glyph-name="uni062B" unicode="&#x62b;" horiz-adv-x="1548" arabic-form="isolated" 
d="M672 205c57.333 0 115.998 1.66895 175.998 5.00195s118.667 8.5 176 15.5s111.333 15.5 162 25.5s94.334 22 131.001 36c-9.33301 64 -25.333 129.5 -48 196.5s-45.667 121.5 -69 163.5l162 137c18 -35.333 33.833 -72.5 47.5 -111.5s25.167 -77.833 34.5 -116.5
s16.5 -76.167 21.5 -112.5s7.5 -69.5 7.5 -99.5c0 -18 -4.16699 -39.5 -12.5 -64.5s-18.666 -49.833 -30.999 -74.5s-25 -47.334 -38 -68.001s-23.5 -35 -31.5 -43c-19.333 -14.667 -52.5 -29.5 -99.5 -44.5s-103.333 -28.667 -169 -41s-137.667 -22.333 -216 -30
s-158.5 -11.5 -240.5 -11.5c-121.333 0 -225 10 -311 30s-147 50.333 -183 91c-23.333 28.667 -39.666 64.5 -48.999 107.5s-14 84.167 -14 123.5c0 115.333 25.333 239.666 76 372.999l118 -39c-10.667 -42 -19.834 -86.167 -27.501 -132.5s-11.5 -88.833 -11.5 -127.5
c0 -18.667 1.5 -36.667 4.5 -54s7.83301 -31.333 14.5 -42c9.33301 -16.667 28 -30.667 56 -42s61.5 -20.833 100.5 -28.5s81.333 -13.167 127 -16.5s91.167 -5 136.5 -5zM749.998 887.002l-79.999 52.999c-30 19.333 -59.333 37 -88 53c16 27.333 30.5 53.333 43.5 78
s27.833 50.667 44.5 78c35.333 -15.333 67.666 -32.166 96.999 -50.499s54.333 -38.5 75 -60.5zM652.999 614.001c-21.333 18 -49.5 37.668 -84.5 59.001s-68.167 40 -99.5 56l100 176c37.333 -14.667 72.333 -32.334 105 -53.001s60.667 -42.667 84 -66zM927.999 621.002
c-22 17.333 -50.833 36.6689 -86.5 58.002s-68.5 40 -98.5 56l99 176c38 -14.667 73.333 -32.334 106 -53.001s60.667 -42.334 84 -65.001z" />
    <glyph glyph-name="uni062C" unicode="&#x62c;" horiz-adv-x="1102" arabic-form="isolated" 
d="M231 -158c11.333 -83.333 46.998 -147.172 106.998 -191.505s149.333 -66.5 268 -66.5c60 0 127.667 4.5 203 13.5s149 21.5 221 37.5l-41 -217c-57.333 -18.667 -124.166 -34.167 -200.499 -46.5s-147.5 -18.5 -213.5 -18.5c-152.667 0 -270.667 37.833 -354 113.5
s-125 181.834 -125 318.501c0 83.333 16.167 160.833 48.5 232.5s75.666 136.167 129.999 193.5s118 106.833 191 148.5s151.167 74.834 234.5 99.501l-246.5 71.5c-65 19 -118.5 28.5 -160.5 28.5c-9.33301 0 -19 -2 -29 -6c-6.66699 -19.333 -12 -43.666 -16 -72.999
s-6.66699 -59 -8 -89l-164 -45c5.33301 52 12.833 100.833 22.5 146.5s19.834 82.834 30.501 111.501c6.66699 16.667 18.167 34.167 34.5 52.5s34.833 35.333 55.5 51s41.5 28.667 62.5 39s40.5 15.5 58.5 15.5c26 0 56 -4.16699 90 -12.5s77.667 -20.666 131 -36.999
l198 -63.5c78.667 -26 175.334 -56 290.001 -90l-78 -203c-123.333 -20 -230 -48.833 -320 -86.5s-164.667 -80 -224 -127s-105 -96.5 -137 -148.5s-51.667 -102.667 -59 -152zM704.998 -236.006c-20.667 18 -48.833 37.666 -84.5 58.999l-100.5 58l101 176
c38 -14.667 73.333 -32.667 106 -54s60.667 -42.666 84 -63.999z" />
    <glyph glyph-name="uni062D" unicode="&#x62d;" horiz-adv-x="1102" arabic-form="isolated" 
d="M231 -158c11.333 -83.333 46.998 -147.172 106.998 -191.505s149.333 -66.5 268 -66.5c60 0 127.667 4.5 203 13.5s149 21.5 221 37.5l-41 -217c-57.333 -18.667 -124.166 -34.167 -200.499 -46.5s-147.5 -18.5 -213.5 -18.5c-152.667 0 -270.667 37.833 -354 113.5
s-125 181.834 -125 318.501c0 83.333 16.167 160.833 48.5 232.5s75.666 136.167 129.999 193.5s118 106.833 191 148.5s151.167 74.834 234.5 99.501l-246.5 71.5c-65 19 -118.5 28.5 -160.5 28.5c-9.33301 0 -19 -2 -29 -6c-6.66699 -19.333 -12 -43.666 -16 -72.999
s-6.66699 -59 -8 -89l-164 -45c5.33301 52 12.833 100.833 22.5 146.5s19.834 82.834 30.501 111.501c6.66699 16.667 18.167 34.167 34.5 52.5s34.833 35.333 55.5 51s41.5 28.667 62.5 39s40.5 15.5 58.5 15.5c26 0 56 -4.16699 90 -12.5s77.667 -20.666 131 -36.999
l198 -63.5c78.667 -26 175.334 -56 290.001 -90l-78 -203c-123.333 -20 -230 -48.833 -320 -86.5s-164.667 -80 -224 -127s-105 -96.5 -137 -148.5s-51.667 -102.667 -59 -152z" />
    <glyph glyph-name="uni062E" unicode="&#x62e;" horiz-adv-x="1102" arabic-form="isolated" 
d="M231 -158c11.333 -83.333 46.998 -147.172 106.998 -191.505s149.333 -66.5 268 -66.5c60 0 127.667 4.5 203 13.5s149 21.5 221 37.5l-41 -217c-57.333 -18.667 -124.166 -34.167 -200.499 -46.5s-147.5 -18.5 -213.5 -18.5c-152.667 0 -270.667 37.833 -354 113.5
s-125 181.834 -125 318.501c0 83.333 16.167 160.833 48.5 232.5s75.666 136.167 129.999 193.5s118 106.833 191 148.5s151.167 74.834 234.5 99.501l-246.5 71.5c-65 19 -118.5 28.5 -160.5 28.5c-9.33301 0 -19 -2 -29 -6c-6.66699 -19.333 -12 -43.666 -16 -72.999
s-6.66699 -59 -8 -89l-164 -45c5.33301 52 12.833 100.833 22.5 146.5s19.834 82.834 30.501 111.501c6.66699 16.667 18.167 34.167 34.5 52.5s34.833 35.333 55.5 51s41.5 28.667 62.5 39s40.5 15.5 58.5 15.5c26 0 56 -4.16699 90 -12.5s77.667 -20.666 131 -36.999
l198 -63.5c78.667 -26 175.334 -56 290.001 -90l-78 -203c-123.333 -20 -230 -48.833 -320 -86.5s-164.667 -80 -224 -127s-105 -96.5 -137 -148.5s-51.667 -102.667 -59 -152zM411.998 882.994c-22 17.333 -50.5 36.668 -85.5 58.001s-68.167 40.666 -99.5 57.999l101 177
c38 -15.333 73.333 -33.5 106 -54.5s60.667 -43.167 84 -66.5z" />
    <glyph glyph-name="uni062F" unicode="&#x62f;" horiz-adv-x="895" arabic-form="isolated" 
d="M381 225c49.333 0 100.832 4.16992 154.499 12.5029s101.834 20.5 144.501 36.5c-19.333 82 -54.5 156.833 -105.5 224.5s-127.167 135.5 -228.5 203.5l70 213c69.333 -42 129.666 -87.5 180.999 -136.5s93.333 -99.167 126 -150.5s56.834 -102.333 72.501 -153
s23.5 -99 23.5 -145c0 -20.667 -4 -43.667 -12 -69s-17.5 -49.5 -28.5 -72.5s-22.333 -43.833 -34 -62.5s-21.5 -31.334 -29.5 -38.001c-31.333 -27.333 -79.833 -50.833 -145.5 -70.5s-138.167 -29.5 -217.5 -29.5c-62.667 0 -112.834 5 -150.501 15s-66.667 24.667 -87 44
s-33.5 42.333 -39.5 69s-9 55.667 -9 87c0 35.333 2.33301 73.166 7 113.499s10.334 76.166 17.001 107.499l115 -21c-4 -28.667 -6 -56.667 -6 -84c0 -13.333 0.666992 -25.833 2 -37.5s7.5 -21.5 18.5 -29.5s28.667 -14.5 53 -19.5s60.5 -7.5 108.5 -7.5z" />
    <glyph glyph-name="uni0630" unicode="&#x630;" horiz-adv-x="895" arabic-form="isolated" 
d="M381 225c49.333 0 100.832 4.16992 154.499 12.5029s101.834 20.5 144.501 36.5c-19.333 82 -54.5 156.833 -105.5 224.5s-127.167 135.5 -228.5 203.5l70 213c69.333 -42 129.666 -87.5 180.999 -136.5s93.333 -99.167 126 -150.5s56.834 -102.333 72.501 -153
s23.5 -99 23.5 -145c0 -20.667 -4 -43.667 -12 -69s-17.5 -49.5 -28.5 -72.5s-22.333 -43.833 -34 -62.5s-21.5 -31.334 -29.5 -38.001c-31.333 -27.333 -79.833 -50.833 -145.5 -70.5s-138.167 -29.5 -217.5 -29.5c-62.667 0 -112.834 5 -150.501 15s-66.667 24.667 -87 44
s-33.5 42.333 -39.5 69s-9 55.667 -9 87c0 35.333 2.33301 73.166 7 113.499s10.334 76.166 17.001 107.499l115 -21c-4 -28.667 -6 -56.667 -6 -84c0 -13.333 0.666992 -25.833 2 -37.5s7.5 -21.5 18.5 -29.5s28.667 -14.5 53 -19.5s60.5 -7.5 108.5 -7.5zM432.999 981.003
c-23.333 16.667 -50.001 34.501 -80.001 53.501s-59.333 36.5 -88 52.5c16.667 27.333 31.334 53.333 44.001 78s27.334 50.667 44.001 78c35.333 -14.667 67.666 -31.334 96.999 -50.001s54.333 -38.667 75 -60z" />
    <glyph glyph-name="uni0631" unicode="&#x631;" horiz-adv-x="686" arabic-form="isolated" 
d="M159 -473c-8 0 -21.833 2.99707 -41.5 8.99707s-41.834 13.5 -66.501 22.5s-51 19.667 -79 32l-81 36.5l39 135c34 -6.66699 69.833 -11.667 107.5 -15s68.167 -5.66602 91.5 -6.99902c26.667 1.33301 57.5 11.833 92.5 31.5s68.5 44.167 100.5 73.5s60.333 62.5 85 99.5
s41 73.167 49 108.5c-4 27.333 -10.833 57.833 -20.5 91.5s-20.5 67.834 -32.5 102.501s-25.167 69.334 -39.5 104.001l-42.5 100l160 131c48.667 -119.333 82.334 -217.833 101.001 -295.5s28 -140.5 28 -188.5c0 -84.667 -16.5 -162.167 -49.5 -232.5
s-73 -130.333 -120 -180s-96.333 -88.5 -148 -116.5s-96.167 -42 -133.5 -42z" />
    <glyph glyph-name="uni0632" unicode="&#x632;" horiz-adv-x="686" arabic-form="isolated" 
d="M159 -473c-8 0 -21.833 2.99707 -41.5 8.99707s-41.834 13.5 -66.501 22.5s-51 19.667 -79 32l-81 36.5l39 135c34 -6.66699 69.833 -11.667 107.5 -15s68.167 -5.66602 91.5 -6.99902c26.667 1.33301 57.5 11.833 92.5 31.5s68.5 44.167 100.5 73.5s60.333 62.5 85 99.5
s41 73.167 49 108.5c-4 27.333 -10.833 57.833 -20.5 91.5s-20.5 67.834 -32.5 102.501s-25.167 69.334 -39.5 104.001l-42.5 100l160 131c48.667 -119.333 82.334 -217.833 101.001 -295.5s28 -140.5 28 -188.5c0 -84.667 -16.5 -162.167 -49.5 -232.5
s-73 -130.333 -120 -180s-96.333 -88.5 -148 -116.5s-96.167 -42 -133.5 -42zM384 619.997c-23.333 16.667 -50.001 34.501 -80.001 53.501s-59.333 36.5 -88 52.5c16.667 27.333 31.334 53.333 44.001 78s27.334 50.667 44.001 78
c35.333 -14.667 67.666 -31.334 96.999 -50.001s54.333 -38.667 75 -60z" />
    <glyph glyph-name="uni0633" unicode="&#x633;" horiz-adv-x="2208" arabic-form="isolated" 
d="M1335 0c-27.333 0 -52.8369 3.00195 -76.5039 9.00195s-45.167 16.667 -64.5 32c0 -10.667 -0.333008 -21.5 -1 -32.5s-1.66699 -22.167 -3 -33.5c-2.66699 -16 -7.16699 -35 -13.5 -57s-13.5 -43.5 -21.5 -64.5s-17.167 -41.167 -27.5 -60.5s-21.5 -34.333 -33.5 -45
c-19.333 -19.333 -46.833 -38.166 -82.5 -56.499s-77.667 -35.333 -126 -51s-101.833 -28.334 -160.5 -38.001s-119.334 -14.5 -182.001 -14.5c-102.667 0 -186 13.667 -250 41s-111 59.666 -141 96.999c-27.333 32.667 -46.5 72.834 -57.5 120.501s-16.5 101.5 -16.5 161.5
c0 78 10.167 157.333 30.5 238s46.166 157.667 77.499 231l121 -45c-23.333 -66.667 -41 -131.5 -53 -194.5s-18 -116.167 -18 -159.5c0 -40 3.33301 -73.167 10 -99.5s15.334 -47.833 26.001 -64.5c15.333 -24.667 50 -45.5 104 -62.5s116.333 -25.5 187 -25.5
c84.667 0 168.667 9.5 252 28.5s155.666 42.167 216.999 69.5c-2.66699 90 -12.167 184.5 -28.5 283.5s-36.166 198.5 -59.499 298.5l170 106l45 -192c8 -38.667 17.167 -69.834 27.5 -93.501s22.666 -42.334 36.999 -56.001s31.5 -22.834 51.5 -27.501s43.667 -7 71 -7
c58.667 0 99.5 9.5 122.5 28.5s37.833 45.5 44.5 79.5l35 203l144 -4l-19 -244c26 -42 72.333 -63 139 -63c24.667 0 51.334 1.33301 80.001 4s54 7.33398 76 14.001c-8 61.333 -21.167 126.5 -39.5 195.5s-41.166 134.833 -68.499 197.5l161 137
c20.667 -47.333 37.834 -94.333 51.501 -141s24.667 -90.667 33 -132s13.833 -79.166 16.5 -113.499s4 -63.166 4 -86.499c0 -18.667 -3.5 -40.334 -10.5 -65.001s-15.833 -49.334 -26.5 -74.001s-22.167 -47.167 -34.5 -67.5s-24.166 -35.5 -35.499 -45.5
c-20 -16 -48.5 -29.833 -85.5 -41.5s-82.833 -17.5 -137.5 -17.5c-39.333 0 -78.166 7.16699 -116.499 21.5s-73.166 42.5 -104.499 84.5c-27.333 -39.333 -59.833 -66.833 -97.5 -82.5s-85.167 -23.5 -142.5 -23.5z" />
    <glyph glyph-name="uni0634" unicode="&#x634;" horiz-adv-x="2208" arabic-form="isolated" 
d="M1335 0c-27.333 0 -52.8369 3.00195 -76.5039 9.00195s-45.167 16.667 -64.5 32c0 -10.667 -0.333008 -21.5 -1 -32.5s-1.66699 -22.167 -3 -33.5c-2.66699 -16 -7.16699 -35 -13.5 -57s-13.5 -43.5 -21.5 -64.5s-17.167 -41.167 -27.5 -60.5s-21.5 -34.333 -33.5 -45
c-19.333 -19.333 -46.833 -38.166 -82.5 -56.499s-77.667 -35.333 -126 -51s-101.833 -28.334 -160.5 -38.001s-119.334 -14.5 -182.001 -14.5c-102.667 0 -186 13.667 -250 41s-111 59.666 -141 96.999c-27.333 32.667 -46.5 72.834 -57.5 120.501s-16.5 101.5 -16.5 161.5
c0 78 10.167 157.333 30.5 238s46.166 157.667 77.499 231l121 -45c-23.333 -66.667 -41 -131.5 -53 -194.5s-18 -116.167 -18 -159.5c0 -40 3.33301 -73.167 10 -99.5s15.334 -47.833 26.001 -64.5c15.333 -24.667 50 -45.5 104 -62.5s116.333 -25.5 187 -25.5
c84.667 0 168.667 9.5 252 28.5s155.666 42.167 216.999 69.5c-2.66699 90 -12.167 184.5 -28.5 283.5s-36.166 198.5 -59.499 298.5l170 106l45 -192c8 -38.667 17.167 -69.834 27.5 -93.501s22.666 -42.334 36.999 -56.001s31.5 -22.834 51.5 -27.501s43.667 -7 71 -7
c58.667 0 99.5 9.5 122.5 28.5s37.833 45.5 44.5 79.5l35 203l144 -4l-19 -244c26 -42 72.333 -63 139 -63c24.667 0 51.334 1.33301 80.001 4s54 7.33398 76 14.001c-8 61.333 -21.167 126.5 -39.5 195.5s-41.166 134.833 -68.499 197.5l161 137
c20.667 -47.333 37.834 -94.333 51.501 -141s24.667 -90.667 33 -132s13.833 -79.166 16.5 -113.499s4 -63.166 4 -86.499c0 -18.667 -3.5 -40.334 -10.5 -65.001s-15.833 -49.334 -26.5 -74.001s-22.167 -47.167 -34.5 -67.5s-24.166 -35.5 -35.499 -45.5
c-20 -16 -48.5 -29.833 -85.5 -41.5s-82.833 -17.5 -137.5 -17.5c-39.333 0 -78.166 7.16699 -116.499 21.5s-73.166 42.5 -104.499 84.5c-27.333 -39.333 -59.833 -66.833 -97.5 -82.5s-85.167 -23.5 -142.5 -23.5zM1532 981.002
c-23.333 16.667 -50.001 34.501 -80.001 53.501s-59.333 36.5 -88 52.5c16.667 27.333 31.334 53.333 44.001 78s27.334 50.667 44.001 78c35.333 -14.667 67.666 -31.334 96.999 -50.001s54.333 -38.667 75 -60zM1436 709.003c-22 17.333 -50.501 36.6689 -85.501 58.002
s-68.167 40 -99.5 56l101 176c36.667 -14.667 71.334 -32.334 104.001 -53.001s60.667 -42.334 84 -65.001zM1709.99 715.006c-22 17.333 -50.667 36.665 -86 57.998s-68 40 -98 56l98 177c38 -15.333 73.5 -33.166 106.5 -53.499s61.167 -42.166 84.5 -65.499z" />
    <glyph glyph-name="uni0635" unicode="&#x635;" horiz-adv-x="2173" arabic-form="isolated" 
d="M1475 0c-80.667 0 -141.833 4.83398 -183.5 14.501s-74.167 23.834 -97.5 42.501c0 -14.667 -0.333008 -28.834 -1 -42.501s-1.66699 -26.834 -3 -39.501c-2.66699 -16 -7.16699 -35 -13.5 -57s-13.5 -43.5 -21.5 -64.5s-17.167 -41.167 -27.5 -60.5
s-21.5 -34.333 -33.5 -45c-19.333 -19.333 -46.833 -38.166 -82.5 -56.499s-77.667 -35.333 -126 -51s-101.833 -28.334 -160.5 -38.001s-119.334 -14.5 -182.001 -14.5c-102.667 0 -186 13.667 -250 41s-111 59.666 -141 96.999c-27.333 32.667 -46.5 72.834 -57.5 120.501
s-16.5 101.5 -16.5 161.5c0 78 10.167 157.333 30.5 238s46.166 157.667 77.499 231l121 -45c-23.333 -66.667 -41 -131.5 -53 -194.5s-18 -116.167 -18 -159.5c0 -40 3.33301 -73.167 10 -99.5s15.334 -47.833 26.001 -64.5c15.333 -24.667 50 -45.5 104 -62.5
s116.333 -25.5 187 -25.5c84.667 0 168.667 9.5 252 28.5s155.666 42.167 216.999 69.5c-2.66699 90 -12.167 184.5 -28.5 283.5s-36.166 198.5 -59.499 298.5l170 106l45 -192c6.66699 -34 14.834 -62 24.501 -84s22.834 -40.333 39.501 -55
c47.333 56 100 111.167 158 165.5s116 103 174 146s113.333 77.833 166 104.5s99 40 139 40c27.333 0 55 -11.167 83 -33.5s53.167 -52 75.5 -89s40.666 -78.667 54.999 -125s21.5 -94.166 21.5 -143.499c0 -13.333 -4.5 -31.333 -13.5 -54s-19.5 -46.334 -31.5 -71.001
s-25.5 -47.167 -40.5 -67.5s-28.833 -35.166 -41.5 -44.499c-20.667 -15.333 -49 -29.833 -85 -43.5s-76.167 -25.334 -120.5 -35.001s-91.5 -17.167 -141.5 -22.5s-98.667 -8 -146 -8zM1792 528.001c-24.667 0 -53.333 -7.16797 -86 -21.501s-68.167 -34.333 -106.5 -60
s-78.666 -56 -120.999 -91s-83.833 -73.5 -124.5 -115.5c18.667 -2.66699 38.334 -4 59.001 -4h72c38 0 78.167 1.33301 120.5 4s83.666 7 123.999 13s78.166 13.5 113.499 22.5s66.666 20.167 93.999 33.5c-6.66699 28.667 -15.834 56.334 -27.501 83.001
s-24.667 50 -39 70s-28.666 36 -42.999 48s-26.166 18 -35.499 18z" />
    <glyph glyph-name="uni0636" unicode="&#x636;" horiz-adv-x="2173" arabic-form="isolated" 
d="M1475 0c-80.667 0 -141.833 4.83398 -183.5 14.501s-74.167 23.834 -97.5 42.501c0 -14.667 -0.333008 -28.834 -1 -42.501s-1.66699 -26.834 -3 -39.501c-2.66699 -16 -7.16699 -35 -13.5 -57s-13.5 -43.5 -21.5 -64.5s-17.167 -41.167 -27.5 -60.5
s-21.5 -34.333 -33.5 -45c-19.333 -19.333 -46.833 -38.166 -82.5 -56.499s-77.667 -35.333 -126 -51s-101.833 -28.334 -160.5 -38.001s-119.334 -14.5 -182.001 -14.5c-102.667 0 -186 13.667 -250 41s-111 59.666 -141 96.999c-27.333 32.667 -46.5 72.834 -57.5 120.501
s-16.5 101.5 -16.5 161.5c0 78 10.167 157.333 30.5 238s46.166 157.667 77.499 231l121 -45c-23.333 -66.667 -41 -131.5 -53 -194.5s-18 -116.167 -18 -159.5c0 -40 3.33301 -73.167 10 -99.5s15.334 -47.833 26.001 -64.5c15.333 -24.667 50 -45.5 104 -62.5
s116.333 -25.5 187 -25.5c84.667 0 168.667 9.5 252 28.5s155.666 42.167 216.999 69.5c-2.66699 90 -12.167 184.5 -28.5 283.5s-36.166 198.5 -59.499 298.5l170 106l45 -192c6.66699 -34 14.834 -62 24.501 -84s22.834 -40.333 39.501 -55
c47.333 56 100 111.167 158 165.5s116 103 174 146s113.333 77.833 166 104.5s99 40 139 40c27.333 0 55 -11.167 83 -33.5s53.167 -52 75.5 -89s40.666 -78.667 54.999 -125s21.5 -94.166 21.5 -143.499c0 -13.333 -4.5 -31.333 -13.5 -54s-19.5 -46.334 -31.5 -71.001
s-25.5 -47.167 -40.5 -67.5s-28.833 -35.166 -41.5 -44.499c-20.667 -15.333 -49 -29.833 -85 -43.5s-76.167 -25.334 -120.5 -35.001s-91.5 -17.167 -141.5 -22.5s-98.667 -8 -146 -8zM1792 528.001c-24.667 0 -53.333 -7.16797 -86 -21.501s-68.167 -34.333 -106.5 -60
s-78.666 -56 -120.999 -91s-83.833 -73.5 -124.5 -115.5c18.667 -2.66699 38.334 -4 59.001 -4h72c38 0 78.167 1.33301 120.5 4s83.666 7 123.999 13s78.166 13.5 113.499 22.5s66.666 20.167 93.999 33.5c-6.66699 28.667 -15.834 56.334 -27.501 83.001
s-24.667 50 -39 70s-28.666 36 -42.999 48s-26.166 18 -35.499 18zM1796 883c-22 17.333 -50.333 36.668 -85 58.001s-67.667 40.666 -99 57.999l100 177c38 -15.333 73.5 -33.5 106.5 -54.5s61.167 -43.167 84.5 -66.5z" />
    <glyph glyph-name="uni0637" unicode="&#x637;" horiz-adv-x="1223" arabic-form="isolated" 
d="M504 633c0 -56 -5.00098 -102.998 -15.001 -140.998c37.333 34 75.5 66 114.5 96s76.833 56.167 113.5 78.5s71.334 39.666 104.001 51.999s62 18.5 88 18.5c27.333 0 55 -11.167 83 -33.5s53.667 -52 77 -89s42.166 -78.667 56.499 -125s21.5 -94.166 21.5 -143.499
c0 -13.333 -4.5 -31.333 -13.5 -54s-20 -46.334 -33 -71.001s-27 -47.167 -42 -67.5s-28.5 -35.166 -40.5 -44.499c-20.667 -15.333 -49 -29.833 -85 -43.5s-76.667 -25.334 -122 -35.001s-92.833 -17.167 -142.5 -22.5s-99.167 -8 -148.5 -8c-78 0 -147.667 2 -209 6
s-126.666 11.667 -195.999 23l-52 231c34.667 -4 66.667 -7 96 -9s57.666 -4.33301 84.999 -7c24.667 28.667 43.834 54.5 57.501 77.5s23.834 45.5 30.501 67.5s11 43.833 13 65.5s3 45.5 3 71.5c0 28.667 -1 65.167 -3 109.5s-4.33301 90.166 -7 137.499
s-5.66699 93.166 -9 137.499s-6.66602 80.833 -9.99902 109.5c-4 35.333 -9 69 -15 101s-12.333 59 -19 81l153 152c16.667 -28.667 28.667 -65.167 36 -109.5s11.666 -91.833 12.999 -142.5c1.33301 -32.667 3.16602 -71.167 5.49902 -115.5s4.5 -88.833 6.5 -133.5
s3.33301 -86.667 4 -126s1 -70.666 1 -93.999zM841.999 528.002c-24.667 0 -53.333 -7.16797 -86 -21.501s-68.167 -34.333 -106.5 -60s-78.333 -56.667 -120 -93s-83.834 -75.5 -126.501 -117.5h132c38 0 78.167 1.33301 120.5 4s83.666 7 123.999 13
s78.166 13.5 113.499 22.5s66.666 20.167 93.999 33.5c-5.33301 28.667 -14.166 56.334 -26.499 83.001s-25.666 50 -39.999 70s-28.666 36 -42.999 48s-26.166 18 -35.499 18z" />
    <glyph glyph-name="uni0638" unicode="&#x638;" horiz-adv-x="1223" arabic-form="isolated" 
d="M504 633c0 -56 -5.00098 -102.998 -15.001 -140.998c37.333 34 75.5 66 114.5 96s76.833 56.167 113.5 78.5s71.334 39.666 104.001 51.999s62 18.5 88 18.5c27.333 0 55 -11.167 83 -33.5s53.667 -52 77 -89s42.166 -78.667 56.499 -125s21.5 -94.166 21.5 -143.499
c0 -13.333 -4.5 -31.333 -13.5 -54s-20 -46.334 -33 -71.001s-27 -47.167 -42 -67.5s-28.5 -35.166 -40.5 -44.499c-20.667 -15.333 -49 -29.833 -85 -43.5s-76.667 -25.334 -122 -35.001s-92.833 -17.167 -142.5 -22.5s-99.167 -8 -148.5 -8c-78 0 -147.667 2 -209 6
s-126.666 11.667 -195.999 23l-52 231c34.667 -4 66.667 -7 96 -9s57.666 -4.33301 84.999 -7c24.667 28.667 43.834 54.5 57.501 77.5s23.834 45.5 30.501 67.5s11 43.833 13 65.5s3 45.5 3 71.5c0 28.667 -1 65.167 -3 109.5s-4.33301 90.166 -7 137.499
s-5.66699 93.166 -9 137.499s-6.66602 80.833 -9.99902 109.5c-4 35.333 -9 69 -15 101s-12.333 59 -19 81l153 152c16.667 -28.667 28.667 -65.167 36 -109.5s11.666 -91.833 12.999 -142.5c1.33301 -32.667 3.16602 -71.167 5.49902 -115.5s4.5 -88.833 6.5 -133.5
s3.33301 -86.667 4 -126s1 -70.666 1 -93.999zM841.999 528.002c-24.667 0 -53.333 -7.16797 -86 -21.501s-68.167 -34.333 -106.5 -60s-78.333 -56.667 -120 -93s-83.834 -75.5 -126.501 -117.5h132c38 0 78.167 1.33301 120.5 4s83.666 7 123.999 13
s78.166 13.5 113.499 22.5s66.666 20.167 93.999 33.5c-5.33301 28.667 -14.166 56.334 -26.499 83.001s-25.666 50 -39.999 70s-28.666 36 -42.999 48s-26.166 18 -35.499 18zM842 883.001c-22 17.333 -50.333 36.668 -85 58.001s-68 40.666 -100 57.999l101 177
c38 -15.333 73.333 -33.5 106 -54.5s60.667 -43.167 84 -66.5z" />
    <glyph glyph-name="uni0639" unicode="&#x639;" horiz-adv-x="905" arabic-form="isolated" 
d="M76 -242c0 74 17.333 146.835 52 218.502s86.334 137.5 155.001 197.5c-62 26 -108 60.167 -138 102.5s-45 87.5 -45 135.5c0 47.333 10 97 30 149s45.333 99.5 76 142.5s65.5 78.5 104.5 106.5s77.5 42 115.5 42c64 0 151.333 -37.667 262 -113l-82 -159
c-88.667 38 -154.667 57 -198 57c-30.667 0 -61.667 -17.833 -93 -53.5s-54.333 -77.834 -69 -126.501c5.33301 -20.667 15.833 -38.834 31.5 -54.501s33.667 -29 54 -40s41.5 -19.167 63.5 -24.5s42.667 -8 62 -8c31.333 0 79 11.167 143 33.5s137 49.833 219 82.5
l-14 -239c-100 -32.667 -184 -64.334 -252 -95.001s-125 -62.167 -171 -94.5s-82.333 -65.166 -109 -98.499s-46.667 -69 -60 -107c13.333 -80.667 49.833 -141.834 109.5 -183.501s144.834 -62.5 255.501 -62.5c60 0 125.167 4.33301 195.5 13s138.166 20.667 203.499 36
l-39 -219c-60 -19.333 -125.5 -34.166 -196.5 -44.499s-135.833 -15.5 -194.5 -15.5c-148.667 0 -264.334 37 -347.001 111s-124 177.667 -124 311z" />
    <glyph glyph-name="uni063A" unicode="&#x63a;" horiz-adv-x="905" arabic-form="isolated" 
d="M76 -242c0 74 17.333 146.835 52 218.502s86.334 137.5 155.001 197.5c-62 26 -108 60.167 -138 102.5s-45 87.5 -45 135.5c0 47.333 10 97 30 149s45.333 99.5 76 142.5s65.5 78.5 104.5 106.5s77.5 42 115.5 42c64 0 151.333 -37.667 262 -113l-82 -159
c-88.667 38 -154.667 57 -198 57c-30.667 0 -61.667 -17.833 -93 -53.5s-54.333 -77.834 -69 -126.501c5.33301 -20.667 15.833 -38.834 31.5 -54.501s33.667 -29 54 -40s41.5 -19.167 63.5 -24.5s42.667 -8 62 -8c31.333 0 79 11.167 143 33.5s137 49.833 219 82.5
l-14 -239c-100 -32.667 -184 -64.334 -252 -95.001s-125 -62.167 -171 -94.5s-82.333 -65.166 -109 -98.499s-46.667 -69 -60 -107c13.333 -80.667 49.833 -141.834 109.5 -183.501s144.834 -62.5 255.501 -62.5c60 0 125.167 4.33301 195.5 13s138.166 20.667 203.499 36
l-39 -219c-60 -19.333 -125.5 -34.166 -196.5 -44.499s-135.833 -15.5 -194.5 -15.5c-148.667 0 -264.334 37 -347.001 111s-124 177.667 -124 311zM446 995.002c-21.333 18 -49.501 37.499 -84.501 58.499l-99.5 58.5l100 176c38.667 -14.667 74.334 -32.667 107.001 -54
s60.667 -43.666 84 -66.999z" />
    <glyph glyph-name="uni0641" unicode="&#x641;" horiz-adv-x="1618" arabic-form="isolated" 
d="M1399 291c-1.33301 18.667 -2.66602 38.3359 -3.99902 59.0029s-3.33301 40.667 -6 60c-36 -11.333 -75.833 -20 -119.5 -26s-88.5 -9 -134.5 -9c-70 0 -124.833 14 -164.5 42s-59.5 76 -59.5 144c0 11.333 1.5 26.166 4.5 44.499s6.83301 38.666 11.5 60.999
s9.66699 44.833 15 67.5s11.666 43.667 18.999 63c21.333 70.667 51.5 124.5 90.5 161.5s84.5 55.5 136.5 55.5c60 0 112.167 -20.167 156.5 -60.5s81.166 -92.666 110.499 -156.999s51.166 -136 65.499 -215s21.5 -158.167 21.5 -237.5c0 -18 -4.33301 -39.5 -13 -64.5
s-19.167 -49.833 -31.5 -74.5s-25 -47.334 -38 -68.001s-23.833 -35 -32.5 -43c-18.667 -14.667 -52.667 -29.5 -102 -44.5s-109.166 -28.667 -179.499 -41s-147.833 -22.333 -232.5 -30s-172 -11.5 -262 -11.5c-129.333 0 -237.666 10 -324.999 30s-149 50.333 -185 91
c-23.333 28.667 -39.666 64.5 -48.999 107.5s-14 84.167 -14 123.5c0 115.333 25.333 239.666 76 372.999l118 -39c-10.667 -42 -19.834 -86.167 -27.501 -132.5s-11.5 -88.833 -11.5 -127.5c0 -18.667 1.5 -36.667 4.5 -54s7.83301 -31.333 14.5 -42
c9.33301 -16.667 28 -30.667 56 -42s62.167 -20.833 102.5 -28.5s84.333 -13.167 132 -16.5s96.167 -5 145.5 -5c65.333 0 132.5 2 201.5 6s135.333 9.5 199 16.5s122 15.833 175 26.5s98.167 23 135.5 37zM1163 809.002c-23.333 0 -42.166 -6.50098 -56.499 -19.501
s-24.833 -27.833 -31.5 -44.5c-8 -18.667 -14.667 -38 -20 -58s-8 -36 -8 -48c0 -19.333 8.5 -34 25.5 -44s47.167 -15 90.5 -15c26 0 55.333 1.33301 88 4s65 7.33398 97 14.001c-20.667 62.667 -46.334 113.5 -77.001 152.5s-66.667 58.5 -108 58.5zM1194 1135
c-22 17.333 -50.333 36.668 -85 58.001s-67.667 40.666 -99 57.999l100 176c38 -14.667 73.5 -32.667 106.5 -54s60.833 -43.333 83.5 -66z" />
    <glyph glyph-name="uni0642" unicode="&#x642;" horiz-adv-x="1329" arabic-form="isolated" 
d="M879 784c62.667 0 117.497 -19.6699 164.497 -59.0029s85.833 -91.5 116.5 -156.5s53.834 -138.5 69.501 -220.5s23.5 -164.667 23.5 -248c0 -20 -3 -43.667 -9 -71s-13.833 -54.333 -23.5 -81s-20.667 -51 -33 -73s-24.5 -38.333 -36.5 -49
c-19.333 -19.333 -47.666 -38.5 -84.999 -57.5s-81.666 -36 -132.999 -51s-109 -27.667 -173 -38s-132.333 -15.5 -205 -15.5c-108 0 -194.667 14 -260 42s-113 59.667 -143 95c-27.333 34.667 -46.833 75.5 -58.5 122.5s-17.5 100.5 -17.5 160.5
c0 78 10.5 157.167 31.5 237.5s47.167 157.5 78.5 231.5l119 -45c-23.333 -66.667 -41.166 -131.167 -53.499 -193.5s-18.5 -115.166 -18.5 -158.499c0 -40 3.5 -73.667 10.5 -101s15.833 -49 26.5 -65c16.667 -23.333 52.334 -43.833 107.001 -61.5
s120.667 -26.5 198 -26.5c106.667 0 206.5 9.16699 299.5 27.5s169.5 41.833 229.5 70.5c-1.33301 24.667 -2.33301 49.334 -3 74.001s-2.33398 48.334 -5.00098 71.001c-36 -13.333 -75.833 -23.833 -119.5 -31.5s-89.167 -11.5 -136.5 -11.5
c-75.333 0 -133.5 16.833 -174.5 50.5s-61.5 82.5 -61.5 146.5c0 30 5.5 68.5 16.5 115.5s23.833 97.167 38.5 150.5c19.333 66 48.166 119 86.499 159s82.833 60 133.5 60zM863.997 329.997c27.333 0 58.501 1.33301 93.501 4s68.167 7.33398 99.5 14.001
c-20.667 70 -47 125.333 -79 166s-70 61 -114 61c-26 0 -46.5 -6.66699 -61.5 -20s-25.833 -31 -32.5 -53c-6.66699 -16.667 -12.834 -34.834 -18.501 -54.501s-8.5 -37.167 -8.5 -52.5c0 -18.667 9 -34.167 27 -46.5s49.333 -18.5 94 -18.5zM775.998 894.997
c-22 18 -50.333 37.498 -85 58.498s-67.667 39.833 -99 56.5l100 176c37.333 -15.333 72.333 -33.166 105 -53.499s60.667 -42.166 84 -65.499zM1051 900.995c-22 18 -50.833 37.498 -86.5 58.498l-98.5 56.5l99 176c38 -15.333 73.333 -33.166 106 -53.499
s60.667 -42.166 84 -65.499z" />
    <glyph glyph-name="uni0643" unicode="&#x643;" horiz-adv-x="1501" arabic-form="isolated" 
d="M672 205c42 0 89.3301 1.66895 141.997 5.00195s105 8.83301 157 16.5s102.167 16.5 150.5 26.5s89.5 22.667 123.5 38c-1.33301 70.667 -3 141.5 -5 212.5s-4.33301 138.333 -7 202s-5.66699 121.667 -9 174s-7.33301 96.5 -12 132.5c-4 35.333 -8.66699 69 -14 101
s-12 59 -20 81l155 160c16.667 -28.667 28 -64.5 34 -107.5s11 -89.833 15 -140.5c4.66699 -38 8.33398 -87.5 11.001 -148.5s5 -126.667 7 -197s3.33301 -141.666 4 -213.999s1 -138.5 1 -198.5c0 -19.333 -4.5 -41.166 -13.5 -65.499s-19.667 -48.833 -32 -73.5
s-25.666 -46.834 -39.999 -66.501s-26.166 -33.834 -35.499 -42.501c-26 -18.667 -61.5 -35.834 -106.5 -51.501s-96.167 -29.667 -153.5 -42s-119.5 -22 -186.5 -29s-134.5 -10.5 -202.5 -10.5c-121.333 0 -225 10 -311 30s-147 50.333 -183 91
c-23.333 28.667 -39.666 64.5 -48.999 107.5s-14 84.167 -14 123.5c0 115.333 25.333 239.666 76 372.999l118 -39c-10.667 -42 -19.834 -86.167 -27.501 -132.5s-11.5 -88.833 -11.5 -127.5c0 -18.667 1.5 -36.667 4.5 -54s7.83301 -31.333 14.5 -42
c9.33301 -16.667 28 -30.667 56 -42s61.5 -20.833 100.5 -28.5s81.333 -13.167 127 -16.5s91.167 -5 136.5 -5zM538.997 543.002c50 4 94.165 9.66602 132.498 16.999s69.166 16.666 92.499 27.999c-19.333 18.667 -45 34.834 -77 48.501l-95 39.5c0 60 4 105 12 135
s25.667 52.667 53 68l273 133v-162l-193 -86c60 -27.333 103.667 -53.666 131 -78.999s41 -57 41 -95c0 -6.66699 -1.66699 -15.5 -5 -26.5s-7.66602 -22.333 -12.999 -34s-10.833 -22.667 -16.5 -33s-11.167 -17.5 -16.5 -21.5c-19.333 -17.333 -54.166 -34 -104.499 -50
s-106.166 -26.667 -167.499 -32z" />
    <glyph glyph-name="uni0644" unicode="&#x644;" horiz-adv-x="1247" arabic-form="isolated" 
d="M543 -72c96.667 0 182.169 9.33301 256.502 28s141.5 43.667 201.5 75c-1.33301 128 -3.33301 250.333 -6 367s-5.33398 222.5 -8.00098 317.5s-6 177.667 -10 248s-8 123.166 -12 158.499c-4.66699 36 -10 70 -16 102s-12.333 59 -19 81l153 151
c16.667 -28.667 28.667 -65.167 36 -109.5s12 -91.833 14 -142.5c12 -252.667 18 -607.667 18 -1065c0 -20 -3.5 -44.333 -10.5 -73s-15.5 -57 -25.5 -85s-21.5 -54 -34.5 -78s-25.833 -41.667 -38.5 -53c-18.667 -18.667 -43.334 -37.167 -74.001 -55.5
s-67.834 -35.5 -111.501 -51.5s-93.5 -28.667 -149.5 -38s-117.667 -14 -185 -14c-91.333 0 -168.333 13.667 -231 41s-109 59.333 -139 96c-27.333 32.667 -46.5 72.834 -57.5 120.501s-16.5 101.834 -16.5 162.501c0 77.333 10.167 156.333 30.5 237
s46.166 158 77.499 232l121 -45c-23.333 -67.333 -41 -132.333 -53 -195s-18 -116 -18 -160c0 -39.333 3.33301 -72.333 10 -99s15.334 -48.334 26.001 -65.001c8.66699 -12 21.834 -23.5 39.501 -34.5s38.5 -20.167 62.5 -27.5s50.667 -13.5 80 -18.5s59 -7.5 89 -7.5z" />
    <glyph glyph-name="uni0645" unicode="&#x645;" horiz-adv-x="944" arabic-form="isolated" 
d="M580 719c44.667 0 85.1689 -14.002 121.502 -42.002s66.666 -64.167 90.999 -108.5s43 -93.5 56 -147.5s19.5 -107 19.5 -159c0 -22 -6.16699 -47.333 -18.5 -76s-28 -55.5 -47 -80.5s-39.667 -46.167 -62 -63.5s-44.5 -26 -66.5 -26c-52 0 -108.667 2.5 -170 7.5
s-120.666 7.5 -177.999 7.5c-18 0 -34.167 -1 -48.5 -3s-29.166 -4.66699 -44.499 -8c3.33301 -44.667 7.66602 -99.834 12.999 -165.501s11.333 -129.167 18 -190.5c6.66699 -72 15.667 -145.667 27 -221l-160 -111l-29 283c-4 36.667 -7.33301 73.834 -10 111.501
s-5.33398 72.834 -8.00098 105.501s-4.66699 62.334 -6 89.001s-2 47.667 -2 63c0 22.667 4.33301 47.334 13 74.001s19.5 52 32.5 76s26.667 44.5 41 61.5s27.166 27.5 38.499 31.5c10.667 4 24.167 7.5 40.5 10.5s34.833 5.83301 55.5 8.5
c-5.33301 17.333 -8 35.666 -8 54.999c0 44 15 104 45 180c26 66 60.5 122.167 103.5 168.5s90.5 69.5 142.5 69.5zM559.002 509.998c-20.667 0 -39.499 -6.50195 -56.499 -19.502s-31.667 -29 -44 -48s-21.833 -38.833 -28.5 -59.5s-10 -39 -10 -55
c0 -23.333 7.16699 -40.166 21.5 -50.499s35.166 -20.166 62.499 -29.499c13.333 0 30 -0.333008 50 -1l61.5 -2l62.5 -2c20.667 -0.666992 39 -1 55 -1c-4 32.667 -11.167 64.667 -21.5 96s-23 60 -38 86s-32 46.833 -51 62.5s-40.167 23.5 -63.5 23.5z" />
    <glyph glyph-name="uni0646" unicode="&#x646;" horiz-adv-x="1278" arabic-form="isolated" 
d="M1094 -150c-19.333 -18.667 -46.832 -37.167 -82.499 -55.5s-77.667 -35.5 -126 -51.5s-101.833 -28.667 -160.5 -38s-119.334 -14 -182.001 -14c-102.667 0 -186 13.667 -250 41s-111 59.333 -141 96c-27.333 32.667 -46.5 72.834 -57.5 120.501
s-16.5 101.834 -16.5 162.501c0 77.333 10.167 156.333 30.5 237s46.166 158 77.499 232l121 -45c-23.333 -67.333 -41 -132.333 -53 -195s-18 -116 -18 -160c0 -39.333 3.33301 -72.333 10 -99s15.334 -48.334 26.001 -65.001c15.333 -24 50 -44.667 104 -62
s116.333 -26 187 -26c84.667 0 168.667 9.66699 252 29s155.666 42.666 216.999 69.999c-2.66699 90 -12.167 184.5 -28.5 283.5s-36.166 198.167 -59.499 297.5l170 107c32.667 -114.667 55.5 -222.5 68.5 -323.5s19.5 -185.167 19.5 -252.5
c0 -20 -3.33301 -44.333 -10 -73s-15.167 -57 -25.5 -85s-22 -54 -35 -78s-25.5 -41.667 -37.5 -53zM651.001 586c-22 17.333 -50.334 36.668 -85.001 58.001s-67.667 40.666 -99 57.999l100 177c38.667 -15.333 74.334 -33.5 107.001 -54.5s60.667 -43.167 84 -66.5z" />
    <glyph glyph-name="uni0648" unicode="&#x648;" horiz-adv-x="811" arabic-form="isolated" 
d="M385 682c62.667 0 116.168 -20.1689 160.501 -60.502s80.5 -90.166 108.5 -149.499s48.5 -123.166 61.5 -191.499s19.5 -131.166 19.5 -188.499c0 -82 -15.333 -157.5 -46 -226.5s-68.167 -128.333 -112.5 -178s-91.5 -88.834 -141.5 -117.501s-94 -43 -132 -43
c-8 0 -22 3 -42 9s-42.167 13.5 -66.5 22.5s-50.833 19.667 -79.5 32l-82 36.5l41 135c32.667 -6.66699 68.167 -11.667 106.5 -15s68.833 -5.66602 91.5 -6.99902c28.667 1.33301 60.5 10.833 95.5 28.5s68.5 40.167 100.5 67.5s60.667 58.5 86 93.5s44 70.833 56 107.5
c0 1.33301 -0.333008 2.66602 -1 3.99902s-1 3.33301 -1 6c-35.333 -14.667 -75.833 -26.167 -121.5 -34.5s-93.834 -12.5 -144.501 -12.5c-75.333 0 -133.833 16.667 -175.5 50s-62.5 82.333 -62.5 147c0 30 3.5 62 10.5 96s15.833 70 26.5 108
c22 86 53.5 154.333 94.5 205s90.833 76 149.5 76zM367.001 226.998c28.667 0 60.332 1.83301 94.999 5.5s68.334 8.83398 101.001 15.501c-23.333 65.333 -51.666 119.166 -84.999 161.499s-70.333 63.5 -111 63.5c-22 0 -40.833 -6.5 -56.5 -19.5s-28.334 -29 -38.001 -48
s-16.5 -38.833 -20.5 -59.5s-6 -38.334 -6 -53.001c0 -19.333 8.83301 -35.166 26.5 -47.499s49.167 -18.5 94.5 -18.5z" />
    <glyph glyph-name="uni0649" unicode="&#x649;" horiz-adv-x="1300" arabic-form="isolated" 
d="M543 -309c-102.667 0 -186.001 13.668 -250.001 41.001s-111 59.333 -141 96c-27.333 32.667 -46.5 72.834 -57.5 120.501s-16.5 101.834 -16.5 162.501c0 77.333 10.167 156.333 30.5 237s46.166 158 77.499 232l121 -45c-23.333 -67.333 -41 -132.333 -53 -195
s-18 -116 -18 -160c0 -39.333 3.33301 -72.333 10 -99s15.334 -48.334 26.001 -65.001c15.333 -24 50 -44.667 104 -62s116.333 -26 187 -26c41.333 0 83.833 2.16699 127.5 6.5s87 11.166 130 20.499s83.5 21.166 121.5 35.499s72 31.833 102 52.5
c-8 10.667 -18.167 20.167 -30.5 28.5s-29 16.666 -50 24.999s-48.667 16.833 -83 25.5s-76.5 20 -126.5 34c-36 9.33301 -64.167 20.166 -84.5 32.499s-36 26 -47 41s-18.167 30.333 -21.5 46s-5 31.834 -5 48.501c0 56 12.667 114.333 38 175s58.166 116.167 98.499 166.5
s84.666 92 132.999 125s95.833 49.5 142.5 49.5c35.333 0 71 -12 107 -36s74 -58 114 -102l-109 -145c-23.333 19.333 -45.833 34.833 -67.5 46.5s-42.167 17.5 -61.5 17.5c-16 0 -35 -4.16699 -57 -12.5s-44.167 -21.666 -66.5 -39.999s-44.166 -41.833 -65.499 -70.5
s-40.333 -63.667 -57 -105c12.667 -20.667 46.667 -37.667 102 -51s125.333 -31.666 210 -54.999c58.667 -18 97.834 -42 117.501 -72s29.5 -67 29.5 -111c0 -17.333 -2.66699 -37.333 -8 -60s-12.166 -44.834 -20.499 -66.501s-16.833 -41 -25.5 -58s-16 -28.5 -22 -34.5
c-27.333 -27.333 -62 -52.833 -104 -76.5s-89 -44.167 -141 -61.5s-107 -31 -165 -41s-116.333 -15 -175 -15z" />
    <glyph glyph-name="uni064A" unicode="&#x64a;" horiz-adv-x="1300" arabic-form="isolated" 
d="M543 -309c-102.667 0 -186.001 13.668 -250.001 41.001s-111 59.333 -141 96c-27.333 32.667 -46.5 72.834 -57.5 120.501s-16.5 101.834 -16.5 162.501c0 77.333 10.167 156.333 30.5 237s46.166 158 77.499 232l121 -45c-23.333 -67.333 -41 -132.333 -53 -195
s-18 -116 -18 -160c0 -39.333 3.33301 -72.333 10 -99s15.334 -48.334 26.001 -65.001c15.333 -24 50 -44.667 104 -62s116.333 -26 187 -26c41.333 0 83.833 2.16699 127.5 6.5s87 11.166 130 20.499s83.5 21.166 121.5 35.499s72 31.833 102 52.5
c-8 10.667 -18.167 20.167 -30.5 28.5s-29 16.666 -50 24.999s-48.667 16.833 -83 25.5s-76.5 20 -126.5 34c-36 9.33301 -64.167 20.166 -84.5 32.499s-36 26 -47 41s-18.167 30.333 -21.5 46s-5 31.834 -5 48.501c0 56 12.667 114.333 38 175s58.166 116.167 98.499 166.5
s84.666 92 132.999 125s95.833 49.5 142.5 49.5c35.333 0 71 -12 107 -36s74 -58 114 -102l-109 -145c-23.333 19.333 -45.833 34.833 -67.5 46.5s-42.167 17.5 -61.5 17.5c-16 0 -35 -4.16699 -57 -12.5s-44.167 -21.666 -66.5 -39.999s-44.166 -41.833 -65.499 -70.5
s-40.333 -63.667 -57 -105c12.667 -20.667 46.667 -37.667 102 -51s125.333 -31.666 210 -54.999c58.667 -18 97.834 -42 117.501 -72s29.5 -67 29.5 -111c0 -17.333 -2.66699 -37.333 -8 -60s-12.166 -44.834 -20.499 -66.501s-16.833 -41 -25.5 -58s-16 -28.5 -22 -34.5
c-27.333 -27.333 -62 -52.833 -104 -76.5s-89 -44.167 -141 -61.5s-107 -31 -165 -41s-116.333 -15 -175 -15zM511.999 -701.999c-20.667 18 -48.833 37.666 -84.5 58.999l-100.5 58l101 176c38 -14.667 73.333 -32.667 106 -54s60.667 -42.666 84 -63.999zM769 -694
c-20.667 18 -48.833 37.666 -84.5 58.999l-100.5 58l101 176c38 -14.667 73.333 -32.667 106 -54s60.667 -42.666 84 -63.999z" />
    <glyph glyph-name="uni0671" unicode="&#x671;" horiz-adv-x="354" arabic-form="isolated" 
d="M90 756c-4 35.333 -9.83398 68.999 -17.501 100.999s-14.834 59 -21.501 81l154 152c13.333 -23.333 24.166 -54.5 32.499 -93.5s14.833 -82.667 19.5 -131s8 -98.833 10 -151.5s3.33301 -103.667 4 -153s0.666992 -94.833 0 -136.5s-1 -75.167 -1 -100.5
c0 -32 -0.333008 -60.5 -1 -85.5s-1.66699 -49.5 -3 -73.5s-3.66602 -48.667 -6.99902 -74s-7.66602 -53.666 -12.999 -84.999l-125 -31c-1.33301 104 -2.66602 196 -3.99902 276s-3.5 151.333 -6.5 214s-6.16699 117.5 -9.5 164.5s-7 89.167 -11 126.5zM392.999 1323
c0 -34 -7.83789 -62.334 -23.5049 -85.001s-36.167 -40.5 -61.5 -53.5s-53.666 -22.167 -84.999 -27.5s-63.333 -8 -96 -8c-39.333 0 -71.666 8.5 -96.999 25.5s-43.666 33.167 -54.999 48.5l-67 -86l-60 55l86.5 113.5c17.667 23.667 31.834 35.5 42.501 35.5
c7.33301 0 15.333 -3.66699 24 -11s19.334 -15.666 32.001 -24.999l61 67c22 23.333 44 43.833 66 61.5s42.833 32.334 62.5 44.001s36.834 17.5 51.501 17.5c15.333 0 30.166 -6.16699 44.499 -18.5s27 -27.333 38 -45s19.833 -36.334 26.5 -56.001s10 -37.167 10 -52.5z
M251.994 1384c-15.333 0 -37.667 -11.167 -67 -33.5s-58.333 -47.833 -87 -76.5c14 -4 29.667 -6 47 -6c12.667 0 27.167 0.666992 43.5 2s32.666 3 48.999 5s32 5 47 9s27.5 8.66699 37.5 14c-7.33301 20.667 -18.166 40.167 -32.499 58.5s-26.833 27.5 -37.5 27.5z" />
    <glyph glyph-name="uni067E" unicode="&#x67e;" horiz-adv-x="1548" arabic-form="isolated" 
d="M672 205c57.333 0 115.998 1.66895 175.998 5.00195s118.667 8.5 176 15.5s111.333 15.5 162 25.5s94.334 22 131.001 36c-9.33301 64 -25.333 129.5 -48 196.5s-45.667 121.5 -69 163.5l162 137c18 -35.333 33.833 -72.5 47.5 -111.5s25.167 -77.833 34.5 -116.5
s16.5 -76.167 21.5 -112.5s7.5 -69.5 7.5 -99.5c0 -18 -4.16699 -39.5 -12.5 -64.5s-18.666 -49.833 -30.999 -74.5s-25 -47.334 -38 -68.001s-23.5 -35 -31.5 -43c-19.333 -14.667 -52.5 -29.5 -99.5 -44.5s-103.333 -28.667 -169 -41s-137.667 -22.333 -216 -30
s-158.5 -11.5 -240.5 -11.5c-121.333 0 -225 10 -311 30s-147 50.333 -183 91c-23.333 28.667 -39.666 64.5 -48.999 107.5s-14 84.167 -14 123.5c0 115.333 25.333 239.666 76 372.999l118 -39c-10.667 -42 -19.834 -86.167 -27.501 -132.5s-11.5 -88.833 -11.5 -127.5
c0 -18.667 1.5 -36.667 4.5 -54s7.83301 -31.333 14.5 -42c9.33301 -16.667 28 -30.667 56 -42s61.5 -20.833 100.5 -28.5s81.333 -13.167 127 -16.5s91.167 -5 136.5 -5zM826.998 -712.998c-21.333 16.667 -47.499 34.5 -78.499 53.5s-60.833 36.167 -89.5 51.5l44.5 78.5
c13 23.667 27.833 49.167 44.5 76.5c35.333 -13.333 67.666 -29.5 96.999 -48.5s54.333 -38.833 75 -59.5zM650.999 -486.998c-22 16 -50.333 35.002 -85 57.002s-67.667 41 -99 57l100 176c37.333 -14.667 72.333 -32.334 105 -53.001s60.667 -42.334 84 -65.001z
M925.999 -480.996c-22 17.333 -50.833 36.665 -86.5 57.998s-68.5 40 -98.5 56l99 177c38 -15.333 73.333 -33.166 106 -53.499s60.667 -42.166 84 -65.499z" />
    <glyph glyph-name="uni0686" unicode="&#x686;" horiz-adv-x="1102" arabic-form="isolated" 
d="M231 -158c11.333 -83.333 46.998 -147.172 106.998 -191.505s149.333 -66.5 268 -66.5c60 0 127.667 4.5 203 13.5s149 21.5 221 37.5l-41 -217c-57.333 -18.667 -124.166 -34.167 -200.499 -46.5s-147.5 -18.5 -213.5 -18.5c-152.667 0 -270.667 37.833 -354 113.5
s-125 181.834 -125 318.501c0 83.333 16.167 160.833 48.5 232.5s75.666 136.167 129.999 193.5s118 106.833 191 148.5s151.167 74.834 234.5 99.501l-246.5 71.5c-65 19 -118.5 28.5 -160.5 28.5c-9.33301 0 -19 -2 -29 -6c-6.66699 -19.333 -12 -43.666 -16 -72.999
s-6.66699 -59 -8 -89l-164 -45c5.33301 52 12.833 100.833 22.5 146.5s19.834 82.834 30.501 111.501c6.66699 16.667 18.167 34.167 34.5 52.5s34.833 35.333 55.5 51s41.5 28.667 62.5 39s40.5 15.5 58.5 15.5c26 0 56 -4.16699 90 -12.5s77.667 -20.666 131 -36.999
l198 -63.5c78.667 -26 175.334 -56 290.001 -90l-78 -203c-123.333 -20 -230 -48.833 -320 -86.5s-164.667 -80 -224 -127s-105 -96.5 -137 -148.5s-51.667 -102.667 -59 -152zM742.998 -328.006c-17.333 15.333 -38.999 30.8311 -64.999 46.498s-51.333 29.5 -76 41.5
c14 24.667 26.333 47.334 37 68.001s23 42.667 37 66c30 -11.333 57.667 -25.166 83 -41.499s46.666 -33.5 63.999 -51.5zM593.999 -135.008l-73 48c-29.333 18.667 -57 34.667 -83 48l84 150c67.333 -26 121.333 -59.667 162 -101zM826.999 -131.008
c-18.667 14.667 -43 31.001 -73 49.001l-82 49l84 150c31.333 -12.667 61.333 -27.834 90 -45.501s52.667 -36.167 72 -55.5z" />
    <glyph glyph-name="uni0698" unicode="&#x698;" horiz-adv-x="711" arabic-form="isolated" 
d="M184 -473c-8 0 -21.833 2.99707 -41.5 8.99707s-41.834 13.5 -66.501 22.5s-51 19.667 -79 32l-81 36.5l39 135c34 -6.66699 69.833 -11.667 107.5 -15s68.167 -5.66602 91.5 -6.99902c26.667 1.33301 57.5 11.833 92.5 31.5s68.5 44.167 100.5 73.5s60.333 62.5 85 99.5
s41 73.167 49 108.5c-4 27.333 -10.833 57.833 -20.5 91.5s-20.5 67.834 -32.5 102.501s-25.167 69.334 -39.5 104.001l-42.5 100l160 131c48.667 -119.333 82.334 -217.833 101.001 -295.5s28 -140.5 28 -188.5c0 -84.667 -16.5 -162.167 -49.5 -232.5
s-73 -130.333 -120 -180s-96.333 -88.5 -148 -116.5s-96.167 -42 -133.5 -42zM418 943.997c-23.333 16.667 -49.999 34.5029 -79.999 53.5029l-88 53.5c16 27.333 30.5 53.166 43.5 77.499s27.833 50.166 44.5 77.499c35.333 -14.667 67.666 -31.334 96.999 -50.001
s54.333 -38.667 75 -60zM321.001 672c-21.333 17.333 -49.5 36.665 -84.5 57.998s-68.167 40 -99.5 56l100 177c37.333 -15.333 72.333 -33.166 105 -53.499s60.667 -42.166 84 -65.499zM596.001 677.999c-22 18 -50.667 37.498 -86 58.498l-98 56.5l98 176
c38 -15.333 73.5 -33.166 106.5 -53.499s60.833 -42.166 83.5 -65.499z" />
    <glyph glyph-name="uni06A9" unicode="&#x6a9;" horiz-adv-x="1477" arabic-form="isolated" 
d="M672 205c42 0 89.6689 2.00195 143.002 6.00195s106.666 9.5 159.999 16.5s104.166 15.833 152.499 26.5s88.833 23.667 121.5 39c-23.333 84.667 -74.5 171 -153.5 259s-187.5 181 -325.5 279c2.66699 44 6.83398 83.333 12.501 118s14.167 65 25.5 91s27 48 47 66
s45.667 31.667 77 41l629 190l-48 -215l-561 -174c76.667 -57.333 143 -114.333 199 -171s102.5 -110.834 139.5 -162.501s64.333 -100.5 82 -146.5s26.5 -87.333 26.5 -124c0 -20.667 -4.16699 -43.167 -12.5 -67.5s-18.333 -48.166 -30 -71.499
s-24.334 -44.5 -38.001 -63.5s-25.167 -32.833 -34.5 -41.5c-24.667 -18.667 -59.5 -35.834 -104.5 -51.501s-96.5 -29.667 -154.5 -42s-120.5 -22 -187.5 -29s-134.5 -10.5 -202.5 -10.5c-121.333 0 -225 10 -311 30s-147 50.333 -183 91
c-23.333 28.667 -39.666 64.5 -48.999 107.5s-14 84.167 -14 123.5c0 115.333 25.333 239.666 76 372.999l118 -39c-10.667 -42 -19.834 -86.167 -27.501 -132.5s-11.5 -88.833 -11.5 -127.5c0 -18.667 1.5 -36.667 4.5 -54s7.83301 -31.333 14.5 -42
c9.33301 -16.667 28 -30.667 56 -42s61.5 -20.833 100.5 -28.5s81.333 -13.167 127 -16.5s91.167 -5 136.5 -5z" />
    <glyph glyph-name="uni06AF" unicode="&#x6af;" horiz-adv-x="1475" arabic-form="isolated" 
d="M907 1360l451 143l-17 -121l-450 -143zM672 205c42 0 89.6689 2.00195 143.002 6.00195s106.666 9.5 159.999 16.5s104.166 15.833 152.499 26.5s88.833 23.667 121.5 39c-23.333 84.667 -74.5 171 -153.5 259s-187.5 181 -325.5 279
c2.66699 44 6.83398 83.333 12.501 118s14.167 65 25.5 91s27 48 47 66s45.667 31.667 77 41l629 190l-48 -215l-561 -174c76.667 -57.333 143 -114.333 199 -171s102.5 -110.834 139.5 -162.501s64.333 -100.5 82 -146.5s26.5 -87.333 26.5 -124
c0 -20.667 -4.16699 -43.167 -12.5 -67.5s-18.333 -48.166 -30 -71.499s-24.334 -44.5 -38.001 -63.5s-25.167 -32.833 -34.5 -41.5c-24.667 -18.667 -59.5 -35.834 -104.5 -51.501s-96.5 -29.667 -154.5 -42s-120.5 -22 -187.5 -29s-134.5 -10.5 -202.5 -10.5
c-121.333 0 -225 10 -311 30s-147 50.333 -183 91c-23.333 28.667 -39.666 64.5 -48.999 107.5s-14 84.167 -14 123.5c0 115.333 25.333 239.666 76 372.999l118 -39c-10.667 -42 -19.834 -86.167 -27.501 -132.5s-11.5 -88.833 -11.5 -127.5c0 -18.667 1.5 -36.667 4.5 -54
s7.83301 -31.333 14.5 -42c9.33301 -16.667 28 -30.667 56 -42s61.5 -20.833 100.5 -28.5s81.333 -13.167 127 -16.5s91.167 -5 136.5 -5z" />
    <glyph glyph-name="uni06C0" unicode="&#x6c0;" horiz-adv-x="795" arabic-form="isolated" 
d="M250 889c164 -97.333 283.168 -199.503 357.501 -306.503s111.5 -208.167 111.5 -303.5c0 -15.333 -3.16699 -34.666 -9.5 -57.999s-14.166 -46.166 -23.499 -68.499s-19.833 -43.166 -31.5 -62.499s-22.167 -33 -31.5 -41
c-28.667 -23.333 -69.334 -42.833 -122.001 -58.5s-105 -23.5 -157 -23.5c-90 0 -157.167 21.5 -201.5 64.5s-66.5 104.167 -66.5 183.5c0 57.333 13.667 121.5 41 192.5s69.666 150.167 126.999 237.5l-78 51zM575.001 253.997c-10.667 52 -35.167 103.831 -73.5 155.498
s-88.166 102.834 -149.499 153.501c-43.333 -61.333 -74.333 -113.166 -93 -155.499s-28 -77.833 -28 -106.5c0 -30 11.667 -53.5 35 -70.5s57.666 -25.5 102.999 -25.5c28.667 0 63 3.66699 103 11s74.333 20 103 38zM178.001 1116c44 8 88.1699 18.833 132.503 32.5
s76.833 28.167 97.5 43.5c-8.66699 10.667 -27.334 22.834 -56.001 36.501s-72.334 28.834 -131.001 45.501c0 28.667 2.83301 57.667 8.5 87s18.334 57.666 38.001 84.999s49.334 54.666 89.001 81.999s94.167 53.333 163.5 78v-152c-34 -10.667 -67.333 -23.5 -100 -38.5
s-59.334 -32.833 -80.001 -53.5c39.333 -10.667 71.666 -21.834 96.999 -33.501s45.166 -23.667 59.499 -36s24.333 -25.333 30 -39s8.5 -28.167 8.5 -43.5c0 -13.333 -5.5 -32.666 -16.5 -57.999s-20.833 -43.333 -29.5 -54c-20 -23.333 -55.333 -46 -106 -68
s-104 -39.667 -160 -53z" />
    <glyph glyph-name="uni06CC" unicode="&#x6cc;" horiz-adv-x="1300" arabic-form="isolated" 
d="M543 -309c-102.667 0 -186.001 13.668 -250.001 41.001s-111 59.333 -141 96c-27.333 32.667 -46.5 72.834 -57.5 120.501s-16.5 101.834 -16.5 162.501c0 77.333 10.167 156.333 30.5 237s46.166 158 77.499 232l121 -45c-23.333 -67.333 -41 -132.333 -53 -195
s-18 -116 -18 -160c0 -39.333 3.33301 -72.333 10 -99s15.334 -48.334 26.001 -65.001c15.333 -24 50 -44.667 104 -62s116.333 -26 187 -26c41.333 0 83.833 2.16699 127.5 6.5s87 11.166 130 20.499s83.5 21.166 121.5 35.499s72 31.833 102 52.5
c-8 10.667 -18.167 20.167 -30.5 28.5s-29 16.666 -50 24.999s-48.667 16.833 -83 25.5s-76.5 20 -126.5 34c-36 9.33301 -64.167 20.166 -84.5 32.499s-36 26 -47 41s-18.167 30.333 -21.5 46s-5 31.834 -5 48.501c0 56 12.667 114.333 38 175s58.166 116.167 98.499 166.5
s84.666 92 132.999 125s95.833 49.5 142.5 49.5c35.333 0 71 -12 107 -36s74 -58 114 -102l-109 -145c-23.333 19.333 -45.833 34.833 -67.5 46.5s-42.167 17.5 -61.5 17.5c-16 0 -35 -4.16699 -57 -12.5s-44.167 -21.666 -66.5 -39.999s-44.166 -41.833 -65.499 -70.5
s-40.333 -63.667 -57 -105c12.667 -20.667 46.667 -37.667 102 -51s125.333 -31.666 210 -54.999c58.667 -18 97.834 -42 117.501 -72s29.5 -67 29.5 -111c0 -17.333 -2.66699 -37.333 -8 -60s-12.166 -44.834 -20.499 -66.501s-16.833 -41 -25.5 -58s-16 -28.5 -22 -34.5
c-27.333 -27.333 -62 -52.833 -104 -76.5s-89 -44.167 -141 -61.5s-107 -31 -165 -41s-116.333 -15 -175 -15z" />
    <glyph glyph-name="uniFB51" unicode="&#x671;" horiz-adv-x="467" arabic-form="final" 
d="M424 0c-60 0 -110.501 8.49902 -151.501 25.499s-74.167 41.167 -99.5 72.5s-43.5 68.166 -54.5 110.499s-16.5 89.5 -16.5 141.5c0 116 -2.66699 224.833 -8 326.5s-19.666 188.834 -42.999 261.501l154 152c24.667 -44 40 -105.333 46 -184s9 -168.334 9 -269.001
c0 -27.333 -1 -55.666 -3 -84.999s-3 -57.666 -3 -84.999c0 -31.333 2 -61 6 -89s12.5 -52.667 25.5 -74s31.833 -38 56.5 -50s56.667 -18 96 -18h29v-236h-43zM392.999 1323c0 -34 -7.83789 -62.334 -23.5049 -85.001s-36.167 -40.5 -61.5 -53.5
s-53.666 -22.167 -84.999 -27.5s-63.333 -8 -96 -8c-39.333 0 -71.666 8.5 -96.999 25.5s-43.666 33.167 -54.999 48.5l-67 -86l-60 55l86.5 113.5c17.667 23.667 31.834 35.5 42.501 35.5c7.33301 0 15.333 -3.66699 24 -11s19.334 -15.666 32.001 -24.999l61 67
c22 23.333 44 43.833 66 61.5s42.833 32.334 62.5 44.001s36.834 17.5 51.501 17.5c15.333 0 30.166 -6.16699 44.499 -18.5s27 -27.333 38 -45s19.833 -36.334 26.5 -56.001s10 -37.167 10 -52.5zM251.994 1384c-15.333 0 -37.667 -11.167 -67 -33.5
s-58.333 -47.833 -87 -76.5c14 -4 29.667 -6 47 -6c12.667 0 27.167 0.666992 43.5 2s32.666 3 48.999 5s32 5 47 9s27.5 8.66699 37.5 14c-7.33301 20.667 -18.166 40.167 -32.499 58.5s-26.833 27.5 -37.5 27.5z" />
    <glyph glyph-name="uniFB57" unicode="&#x67e;" horiz-adv-x="1720" arabic-form="final" 
d="M1700 0c-32.667 0 -64.001 2.33301 -94.001 7s-57.667 12.834 -83 24.501s-48.666 27 -69.999 46s-38.666 43.833 -51.999 74.5c-15.333 -30.667 -29 -50 -41 -58c-19.333 -14.667 -52.5 -29.5 -99.5 -44.5s-103.333 -28.667 -169 -41s-137.667 -22.333 -216 -30
s-158.5 -11.5 -240.5 -11.5c-121.333 0 -225 10 -311 30s-147 50.333 -183 91c-23.333 28.667 -39.666 64.5 -48.999 107.5s-14 84.167 -14 123.5c0 115.333 25.333 239.666 76 372.999l118 -39c-10.667 -42 -19.834 -86.167 -27.501 -132.5s-11.5 -88.833 -11.5 -127.5
c0 -18.667 1.5 -36.667 4.5 -54s7.83301 -31.333 14.5 -42c9.33301 -16.667 28 -30.667 56 -42s61.5 -20.833 100.5 -28.5s81.333 -13.167 127 -16.5s91.167 -5 136.5 -5c57.333 0 116.666 1.66699 177.999 5s121 8.83301 179 16.5s112.333 16.5 163 26.5s93.667 22 129 36
l-10 138c-4 54 -9.66699 105 -17 153l172 92l31 -277c4 -35.333 12.5 -63.5 25.5 -84.5s29.5 -37 49.5 -48s42.5 -18.167 67.5 -21.5s51.833 -5 80.5 -5v-236h-20zM826.999 -713c-21.333 16.667 -47.499 34.5 -78.499 53.5s-60.833 36.167 -89.5 51.5l44.5 78.5
c13 23.667 27.833 49.167 44.5 76.5c35.333 -13.333 67.666 -29.5 96.999 -48.5s54.333 -38.833 75 -59.5zM651 -487c-22 16 -50.333 35.002 -85 57.002s-67.667 41 -99 57l100 176c37.333 -14.667 72.333 -32.334 105 -53.001s60.667 -42.334 84 -65.001zM926 -480.998
c-22 17.333 -50.833 36.665 -86.5 57.998s-68.5 40 -98.5 56l99 177c38 -15.333 73.333 -33.166 106 -53.499s60.667 -42.166 84 -65.499z" />
    <glyph glyph-name="uniFB58" unicode="&#x67e;" horiz-adv-x="543" arabic-form="initial" 
d="M-47 117c0 32.667 4.83203 60.667 14.499 84s20.5 35 32.5 35h27c13.333 0 31.333 0.666992 54 2s47.334 3.66602 74.001 6.99902s53.5 8.33301 80.5 15s52.167 15.667 75.5 27c-9.33301 64 -25.333 129.5 -48 196.5s-45.334 121.5 -68.001 163.5l161 137
c18 -35.333 33.833 -72.5 47.5 -111.5s25.334 -77.833 35.001 -116.5s16.834 -76.167 21.501 -112.5s7 -69.5 7 -99.5c0 -18 -4.5 -39.833 -13.5 -65.5s-19.667 -51.167 -32 -76.5s-25.333 -48.666 -39 -69.999s-25.167 -36.666 -34.5 -45.999
c-16 -15.333 -36.333 -28 -61 -38s-52.334 -18.833 -83.001 -26.5s-63.167 -13.167 -97.5 -16.5s-68.5 -5 -102.5 -5h-4c-12 0 -22.833 11.667 -32.5 35s-14.5 50.666 -14.5 81.999zM368.999 -666c-22 16.667 -48.3311 34.5 -78.998 53.5s-60.334 36.167 -89.001 51.5
l43.5 79c13 24 27.833 49.333 44.5 76c35.333 -13.333 67.666 -29.5 96.999 -48.5s54.333 -38.833 75 -59.5zM193.001 -440c-22 16 -50.501 34.999 -85.501 56.999s-68.167 41 -99.5 57l101 176c36.667 -14.667 71.334 -32.167 104.001 -52.5s60.667 -42.166 84 -65.499z
M467 -434.001c-22 17.333 -50.667 36.665 -86 57.998l-98 57l98 176c38 -15.333 73.5 -33.166 106.5 -53.499s60.833 -42.166 83.5 -65.499z" />
    <glyph glyph-name="uniFB59" unicode="&#x67e;" horiz-adv-x="686" arabic-form="medial" 
d="M666 0c-64.667 0 -123.167 8.83398 -175.5 26.501s-92.833 54.5 -121.5 110.5c-19.333 -32.667 -34.333 -53.667 -45 -63c-26 -23.333 -69.167 -41.5 -129.5 -54.5s-125.166 -19.5 -194.499 -19.5c-12 0 -22.833 11.667 -32.5 35s-14.5 50.666 -14.5 81.999
c0 32.667 4.83301 60.667 14.5 84s20.5 35 32.5 35h27c34 0 75.5 2.33301 124.5 7s94.167 16.667 135.5 36c-2.66699 39.333 -6.16699 86.333 -10.5 141s-9.83301 106.334 -16.5 155.001l172 93l29 -273c4 -36.667 12.5 -65.667 25.5 -87s29.667 -37.333 50 -48
s43.166 -17.334 68.499 -20.001s52.333 -4 81 -4v-236h-20zM399 -665.999c-21.333 16.667 -47.5 34.5 -78.5 53.5s-60.833 36.167 -89.5 51.5l44.5 79c13 24 27.5 49.333 43.5 76c36 -13.333 68.667 -29.5 98 -48.5s54.333 -38.833 75 -59.5zM223 -439.999
c-22 16 -50.333 34.999 -85 56.999s-67.667 41 -99 57l100 176c37.333 -14.667 72.333 -32.167 105 -52.5s60.667 -42.166 84 -65.499zM498 -434c-22 17.333 -50.833 36.665 -86.5 57.998l-98.5 57l99 176c38 -15.333 73.333 -33.166 106 -53.499s60.667 -42.166 84 -65.499
z" />
    <glyph glyph-name="uniFB67" unicode="&#x679;" horiz-adv-x="1720" arabic-form="final" 
d="M1700 0c-32.667 0 -64.001 2.33301 -94.001 7s-57.667 12.834 -83 24.501s-48.666 27 -69.999 46s-38.666 43.833 -51.999 74.5c-15.333 -30.667 -29 -50 -41 -58c-19.333 -14.667 -52.5 -29.5 -99.5 -44.5s-103.333 -28.667 -169 -41s-137.667 -22.333 -216 -30
s-158.5 -11.5 -240.5 -11.5c-121.333 0 -225 10 -311 30s-147 50.333 -183 91c-23.333 28.667 -39.666 64.5 -48.999 107.5s-14 84.167 -14 123.5c0 115.333 25.333 239.666 76 372.999l118 -39c-10.667 -42 -19.834 -86.167 -27.501 -132.5s-11.5 -88.833 -11.5 -127.5
c0 -18.667 1.5 -36.667 4.5 -54s7.83301 -31.333 14.5 -42c9.33301 -16.667 28 -30.667 56 -42s61.5 -20.833 100.5 -28.5s81.333 -13.167 127 -16.5s91.167 -5 136.5 -5c57.333 0 116.666 1.66699 177.999 5s121 8.83301 179 16.5s112.333 16.5 163 26.5s93.667 22 129 36
l-10 138c-4 54 -9.66699 105 -17 153l172 92l31 -277c4 -35.333 12.5 -63.5 25.5 -84.5s29.5 -37 49.5 -48s42.5 -18.167 67.5 -21.5s51.833 -5 80.5 -5v-236h-20zM734.999 614c-52 0 -105.335 4.33398 -160.002 13.001l-22 116l84 -6c9.33301 16.667 15.833 37.667 19.5 63
s4.5 51 2.5 77c0 42 -2 81.5 -6 118.5s-10.667 66.833 -20 89.5l84 74c12 -24.667 19.333 -57.834 22 -99.501s4 -91.167 4 -148.5v-28.5c0 -11 -1.33301 -20.5 -4 -28.5c27.333 27.333 56.333 52 87 74s57.667 33 81 33c14 0 27.5 -5.16699 40.5 -15.5
s24.5 -23.333 34.5 -39s18.5 -32.5 25.5 -50.5s11.833 -34.333 14.5 -49c1.33301 -5.33301 2.33301 -10.5 3 -15.5s0.333984 -10.833 -0.999023 -17.5c-5.33301 -32.667 -16.166 -59.5 -32.499 -80.5s-36.5 -37.333 -60.5 -49s-51 -19.667 -81 -24s-60 -6.5 -90 -6.5h-25z
M884.997 850.001c-15.333 0 -38.999 -12 -70.999 -36s-63 -51 -93 -81h35c13.333 0 29.166 0.333008 47.499 1s36.833 2 55.5 4s36.5 5.16699 53.5 9.5s30.833 9.83301 41.5 16.5c-6.66699 20.667 -17.167 40.167 -31.5 58.5s-26.833 27.5 -37.5 27.5z" />
    <glyph glyph-name="uniFB68" unicode="&#x679;" horiz-adv-x="543" arabic-form="initial" 
d="M-47 117c0 32.667 4.83203 60.667 14.499 84s20.5 35 32.5 35h27c13.333 0 31.333 0.666992 54 2s47.334 3.66602 74.001 6.99902s53.5 8.33301 80.5 15s52.167 15.667 75.5 27c-9.33301 64 -25.333 129.5 -48 196.5s-45.334 121.5 -68.001 163.5l161 137
c18 -35.333 33.833 -72.5 47.5 -111.5s25.334 -77.833 35.001 -116.5s16.834 -76.167 21.501 -112.5s7 -69.5 7 -99.5c0 -18 -4.5 -39.833 -13.5 -65.5s-19.667 -51.167 -32 -76.5s-25.333 -48.666 -39 -69.999s-25.167 -36.666 -34.5 -45.999
c-16 -15.333 -36.333 -28 -61 -38s-52.334 -18.833 -83.001 -26.5s-63.167 -13.167 -97.5 -16.5s-68.5 -5 -102.5 -5h-4c-12 0 -22.833 11.667 -32.5 35s-14.5 50.666 -14.5 81.999zM198.999 879c-52 0 -105.337 4 -160.004 12l-23 117l84 -7c10 16.667 16.667 37.667 20 63
s4.33301 51 3 77c0 42 -2 81.5 -6 118.5s-11 67.167 -21 90.5l84 73c12.667 -24.667 20.334 -57.667 23.001 -99s4 -90.666 4 -147.999v-29.5c0 -11 -1.33301 -20.5 -4 -28.5c27.333 27.333 56.333 52 87 74s57.667 33 81 33c13.333 0 26.5 -5.16699 39.5 -15.5
s24.667 -23.333 35 -39s18.833 -32.334 25.5 -50.001s11.334 -34.167 14.001 -49.5c1.33301 -5.33301 2.33301 -10.333 3 -15s0.333984 -10.667 -0.999023 -18c-5.33301 -32.667 -16.166 -59.5 -32.499 -80.5s-36.5 -37.333 -60.5 -49s-51 -19.5 -81 -23.5s-60 -6 -90 -6
h-24zM347.995 1114c-14.667 0 -38.167 -12 -70.5 -36s-63.5 -51 -93.5 -81h35c14 0 30.167 0.333008 48.5 1s36.666 2.16699 54.999 4.5s36 5.5 53 9.5s31.167 9.33301 42.5 16c-6.66699 20.667 -17.167 40.167 -31.5 58.5s-27.166 27.5 -38.499 27.5z" />
    <glyph glyph-name="uniFB69" unicode="&#x679;" horiz-adv-x="686" arabic-form="medial" 
d="M666 0c-64.667 0 -123.167 8.83398 -175.5 26.501s-92.833 54.5 -121.5 110.5c-19.333 -32.667 -34.333 -53.667 -45 -63c-26 -23.333 -69.167 -41.5 -129.5 -54.5s-125.166 -19.5 -194.499 -19.5c-12 0 -22.833 11.667 -32.5 35s-14.5 50.666 -14.5 81.999
c0 32.667 4.83301 60.667 14.5 84s20.5 35 32.5 35h27c34 0 75.5 2.33301 124.5 7s94.167 16.667 135.5 36c-2.66699 39.333 -6.16699 86.333 -10.5 141s-9.83301 106.334 -16.5 155.001l172 93l29 -273c4 -36.667 12.5 -65.667 25.5 -87s29.667 -37.333 50 -48
s43.166 -17.334 68.499 -20.001s52.333 -4 81 -4v-236h-20zM270 776.001c-51.333 0 -104.337 4.00098 -159.004 12.001l-23 117l84 -6c9.33301 16.667 15.833 37.5 19.5 62.5s4.83398 50.5 3.50098 76.5c0 42.667 -2.16699 82.334 -6.5 119.001s-11.166 66.667 -20.499 90
l84 74c12 -24.667 19.5 -57.834 22.5 -99.501s4.5 -91.167 4.5 -148.5v-28.5c0 -11 -1.66699 -20.5 -5 -28.5c27.333 27.333 56.5 51.833 87.5 73.5s57.833 32.5 80.5 32.5c14 0 27.5 -5 40.5 -15s24.5 -23 34.5 -39s18.5 -32.833 25.5 -50.5s11.833 -33.834 14.5 -48.501
c1.33301 -5.33301 2.33301 -10.5 3 -15.5s0.333984 -10.833 -0.999023 -17.5c-5.33301 -32.667 -16.166 -59.667 -32.499 -81s-36.5 -37.833 -60.5 -49.5s-51 -19.5 -81 -23.5s-60 -6 -90 -6h-25zM419.996 1012c-15.333 0 -39 -12 -71 -36s-63 -51 -93 -81h35
c13.333 0 29.333 0.333008 48 1s37.167 2 55.5 4s36 5 53 9s30.833 9.66699 41.5 17c-6.66699 20 -17.167 39.333 -31.5 58s-26.833 28 -37.5 28z" />
    <glyph glyph-name="uniFB6B" unicode="&#x6a4;" horiz-adv-x="1651" arabic-form="final" 
d="M1552 0c-76 0 -142.665 5.16797 -199.998 15.501s-104 31.166 -140 62.499c-32.667 -19.333 -71.834 -36.166 -117.501 -50.499s-94.5 -25.833 -146.5 -34.5s-104.833 -15.167 -158.5 -19.5s-105.167 -6.5 -154.5 -6.5c-121.333 0 -225 10 -311 30s-147 50.333 -183 91
c-23.333 28.667 -39.666 64.5 -48.999 107.5s-14 84.167 -14 123.5c0 115.333 25.333 239.666 76 372.999l118 -39c-10.667 -42 -19.834 -86.167 -27.501 -132.5s-11.5 -88.833 -11.5 -127.5c0 -18.667 1.5 -36.667 4.5 -54s7.83301 -31.333 14.5 -42
c9.33301 -16.667 28 -30.667 56 -42s61.5 -20.833 100.5 -28.5s81.333 -13.167 127 -16.5s91.167 -5 136.5 -5c57.333 0 116 2 176 6s112.667 10.667 158 20c-18 24.667 -31.167 50 -39.5 76s-12.5 50.667 -12.5 74c0 52 9.66699 102.833 29 152.5s44 93.667 74 132
s62.333 69.166 97 92.499s67.667 35 99 35c37.333 0 72.666 -12.333 105.999 -37s63.333 -54.5 90 -89.5s47.834 -71.5 63.501 -109.5s23.5 -71.333 23.5 -100c0 -8.66699 -1.33301 -19.834 -4 -33.501s-6 -27.667 -10 -42s-8.5 -28.666 -13.5 -42.999
s-9.5 -26.166 -13.5 -35.499c-13.333 -27.333 -28.333 -49 -45 -65c19.333 -1.33301 38.166 -2 56.499 -2h56.5h88v-236h-99zM1096 420.001c0 -27.333 9.50098 -56 28.501 -86s50.5 -57.333 94.5 -82c38 19.333 73 41.5 105 66.5s56.333 49.167 73 72.5
c-8.66699 24.667 -19.834 48.667 -33.501 72s-28.667 43.5 -45 60.5s-32 30.667 -47 41s-27.167 15.5 -36.5 15.5c-14 0 -29.167 -4.5 -45.5 -13.5s-31.333 -21 -45 -36s-25.167 -32 -34.5 -51s-14 -38.833 -14 -59.5zM1237 1194
c-23.333 16.667 -49.999 34.501 -79.999 53.501s-59.333 36.5 -88 52.5c16.667 27.333 31.5 53.333 44.5 78s27.5 50.667 43.5 78c35.333 -14.667 67.666 -31.334 96.999 -50.001s54.333 -38.667 75 -60zM1141 922.002c-22 17.333 -50.334 36.6689 -85.001 58.002
s-68 40 -100 56l101 176c36.667 -14.667 71.334 -32.334 104.001 -53.001s60.667 -42.334 84 -65.001zM1415 928.005c-22 17.333 -50.667 36.665 -86 57.998s-68 40 -98 56l98 177c38 -15.333 73.5 -33.166 106.5 -53.499s61.167 -42.166 84.5 -65.499z" />
    <glyph glyph-name="uniFB6C" unicode="&#x6a4;" horiz-adv-x="815" arabic-form="initial" 
d="M-47 117c0 32.667 4.83203 60.6689 14.499 84.002s20.5 35 32.5 35h117c42 0 85.833 0.666992 131.5 2s89.667 4.33301 132 9s82 10.667 119 18s69.167 17.333 96.5 30l-4 57.5c-1.33301 19 -3.33301 38.167 -6 57.5c-36 -11.333 -75.833 -20 -119.5 -26
s-89.167 -9 -136.5 -9c-70 0 -124.333 14 -163 42s-58 76 -58 144c0 11.333 1.33301 26.166 4 44.499s6.33398 38.666 11.001 60.999s9.66699 44.833 15 67.5s11 43.667 17 63c22.667 70.667 53.5 124.5 92.5 161.5s84.5 55.5 136.5 55.5c60 0 112.167 -20.167 156.5 -60.5
s80.833 -92.666 109.5 -156.999s50.167 -136 64.5 -215s21.5 -158.167 21.5 -237.5c0 -19.333 -4 -41.5 -12 -66.5s-18.167 -49.833 -30.5 -74.5s-25 -47 -38 -67s-23.5 -34 -31.5 -42c-31.333 -27.333 -92.5 -49.833 -183.5 -67.5s-202.833 -26.5 -335.5 -26.5h-106
c-12 0 -22.833 11.667 -32.5 35s-14.5 50.666 -14.5 81.999zM359.999 580.002c26 0 55.168 1.33203 87.501 3.99902s64.166 7.33398 95.499 14.001c-19.333 62.667 -44.333 113.5 -75 152.5s-66.667 58.5 -108 58.5c-22.667 0 -41.5 -6.5 -56.5 -19.5
s-26.167 -27.833 -33.5 -44.5c-6.66699 -18.667 -12.667 -38 -18 -58s-8 -36 -8 -48c0 -19.333 8.5 -34 25.5 -44s47.167 -15 90.5 -15zM354 1407c-23.333 16.667 -50 34.501 -80 53.501s-59.333 36.5 -88 52.5c16.667 27.333 31.5 53.333 44.5 78s27.5 50.667 43.5 78
c36 -14.667 68.667 -31.334 98 -50.001s54 -38.667 74 -60zM258 1135c-22 17.333 -50.333 36.6689 -85 58.002s-67.667 40 -99 56l100 176c36.667 -14.667 71.5 -32.334 104.5 -53.001s60.833 -42.334 83.5 -65.001zM532 1141c-21.333 17.333 -49.834 36.665 -85.501 57.998
s-68.5 40 -98.5 56l98 177c38.667 -15.333 74.334 -33.166 107.001 -53.499s60.667 -42.166 84 -65.499z" />
    <glyph glyph-name="uniFB6D" unicode="&#x6a4;" horiz-adv-x="831" arabic-form="medial" 
d="M733 0c-76.667 0 -144 4.83398 -202 14.501s-104.667 30.834 -140 63.501c-42 -31.333 -92 -52.166 -150 -62.499s-124 -15.5 -198 -15.5h-43c-12 0 -22.833 11.667 -32.5 35s-14.5 50.666 -14.5 81.999c0 32.667 4.83301 60.667 14.5 84s20.5 35 32.5 35h49h70
c22 0 43 0.666992 63 2c-16 24 -27.833 48.333 -35.5 73s-11.5 48 -11.5 70c0 52 9.66699 102.833 29 152.5s44 93.667 74 132s62.333 69.166 97 92.499s67.667 35 99 35c34 0 68.167 -11.667 102.5 -35s64.833 -52 91.5 -86s48.167 -70.5 64.5 -109.5
s24.5 -74.167 24.5 -105.5c0 -8.66699 -1.33301 -19.834 -4 -33.501s-6.16699 -28 -10.5 -43s-8.83301 -29.333 -13.5 -43s-9 -25.167 -13 -34.5c-14 -27.333 -29 -49 -45 -65c18.667 -1.33301 37.667 -2 57 -2h57h86v-236h-98zM416 580.001
c-14 0 -29.1641 -4.5 -45.4971 -13.5s-31.333 -21 -45 -36s-25.334 -32 -35.001 -51s-14.5 -38.833 -14.5 -59.5c0 -27.333 9.66699 -56 29 -86s50.666 -57.333 93.999 -82c38.667 19.333 74 41.5 106 66.5s56.333 49.167 73 72.5
c-8.66699 24.667 -19.834 48.667 -33.501 72s-28.667 43.5 -45 60.5s-32 30.667 -47 41s-27.167 15.5 -36.5 15.5zM418.003 1194c-23.333 16.667 -49.999 34.501 -79.999 53.501s-59.333 36.5 -88 52.5c16 27.333 30.5 53.333 43.5 78s27.833 50.667 44.5 78
c35.333 -14.667 67.666 -31.334 96.999 -50.001s54.333 -38.667 75 -60zM322.004 922.002c-22 17.333 -50.501 36.6689 -85.501 58.002s-68.167 40 -99.5 56l101 176c36.667 -14.667 71.334 -32.334 104.001 -53.001s60.667 -42.334 84 -65.001zM596.003 928.005
c-22 17.333 -50.667 36.665 -86 57.998s-68 40 -98 56l98 177c38 -15.333 73.5 -33.166 106.5 -53.499s60.833 -42.166 83.5 -65.499z" />
    <glyph glyph-name="uniFB7B" unicode="&#x686;" horiz-adv-x="1159" arabic-form="final" 
d="M1032 0c-31.333 0 -62.334 2.66113 -93.001 7.99414s-59.667 17.666 -87 36.999s-52.333 48.333 -75 87s-42 92.334 -58 161.001c-79.333 -27.333 -148.333 -58.833 -207 -94.5s-107.834 -73.167 -147.501 -112.5s-70.334 -79.833 -92.001 -121.5
s-35.5 -82.5 -41.5 -122.5c11.333 -83.333 47 -147.166 107 -191.499s149.333 -66.5 268 -66.5c60 0 127.667 4.5 203 13.5s149 21.5 221 37.5l-41 -217c-57.333 -18.667 -124.166 -34.167 -200.499 -46.5s-147.5 -18.5 -213.5 -18.5c-152.667 0 -270.667 37.833 -354 113.5
s-125 181.834 -125 318.501c0 83.333 16.167 160.833 48.5 232.5s75.666 136.167 129.999 193.5s118 106.833 191 148.5s151.167 74.834 234.5 99.501l-246.5 71.5c-65 19 -118.5 28.5 -160.5 28.5c-9.33301 0 -19 -2 -29 -6c-6.66699 -19.333 -12 -43.666 -16 -72.999
s-6.66699 -59 -8 -89l-164 -45c5.33301 52 12.833 100.833 22.5 146.5s19.834 82.834 30.501 111.501c6.66699 16.667 18.167 34.167 34.5 52.5s34.833 35.333 55.5 51s41.5 28.667 62.5 39s40.5 15.5 58.5 15.5c26 0 56 -4.16699 90 -12.5s77.667 -20.666 131 -36.999
l198 -63.5c78.667 -26 175.334 -56 290.001 -90l-78 -203c-19.333 -2.66699 -38.166 -6 -56.499 -10l-54.5 -12c9.33301 -23.333 21.333 -41.5 36 -54.5s29.5 -22.833 44.5 -29.5s30.667 -10.667 47 -12s32.5 -2 48.5 -2h123v-236h-127zM644.999 -369.006
c-18 14 -39.1699 28.5 -63.5029 43.5s-48.166 28.5 -71.499 40.5c13.333 23.333 24.833 44.5 34.5 63.5s21.5 39.5 35.5 61.5c28.667 -10.667 54.834 -23.5 78.501 -38.5s43.834 -30.833 60.501 -47.5zM501.996 -186.006c-18 13.333 -41 28.499 -69 45.499l-79 46.5l80 143
c30 -13.333 58.333 -28.166 85 -44.499s49.667 -33.5 69 -51.5zM724.996 -182.007c-18 14.667 -41.667 30.5 -71 47.5l-79 44.5l80 143c31.333 -10.667 60 -24.5 86 -41.5s48.667 -35.167 68 -54.5z" />
    <glyph glyph-name="uniFB7C" unicode="&#x686;" horiz-adv-x="1171" arabic-form="initial" 
d="M-47 117c0 32.667 4.83594 60.668 14.5029 84.001s20.5 35 32.5 35h4h277c43.333 0 85.833 5.66699 127.5 17s83.834 28.666 126.501 51.999l120.5 67l112.5 62l-252 76c-68 20.667 -123.333 31 -166 31h-13c-4.66699 0 -9.66699 -1.33301 -15 -4
c-7.33301 -19.333 -13 -43.333 -17 -72s-6.66699 -54.667 -8 -78l-168 -41c2.66699 22 5.66699 45 9 69s7.16602 47.167 11.499 69.5s9.16602 43.5 14.499 63.5s10.666 36 15.999 48c5.33301 13.333 15.5 29.333 30.5 48s32.5 36.167 52.5 52.5s40.5 30 61.5 41
s41.167 16.5 60.5 16.5c27.333 0 58.666 -4.5 93.999 -13.5s80.666 -22.667 135.999 -41l202 -68.5c79.333 -27.333 175.666 -58.666 288.999 -93.999l-78 -203c-34 0 -66 -4.16699 -96 -12.5s-62.167 -21 -96.5 -38s-72.666 -39.833 -114.999 -68.5l-149.5 -104
c-46 -32 -95.667 -58.5 -149 -79.5s-108.666 -31.5 -165.999 -31.5h-256c-12 0 -22.833 11.667 -32.5 35s-14.5 50.666 -14.5 81.999zM569.003 -665.999c-21.333 16.667 -47.5 34.5 -78.5 53.5s-60.833 36.167 -89.5 51.5l44.5 79c13 24 27.5 49.333 43.5 76
c36 -13.333 68.667 -29.5 98 -48.5s54.333 -38.833 75 -59.5zM393.003 -439.999c-22 16 -50.333 34.999 -85 56.999s-67.667 41 -99 57l100 176c37.333 -14.667 72.333 -32.167 105 -52.5s60.667 -42.166 84 -65.499zM668.003 -434c-22 17.333 -50.833 36.665 -86.5 57.998
l-98.5 57l99 176c38 -15.333 73.333 -33.166 106 -53.499s60.667 -42.166 84 -65.499z" />
    <glyph glyph-name="uniFB7D" unicode="&#x686;" horiz-adv-x="1212" arabic-form="medial" 
d="M1071 0c-30 0 -59.333 2.33496 -88 7.00195s-56.334 15.667 -83.001 33s-51.167 42.666 -73.5 75.999s-41.833 79.333 -58.5 138l-197 -143c-46 -32 -95.667 -58.5 -149 -79.5s-108.666 -31.5 -165.999 -31.5h-252h-4c-12 0 -22.833 11.667 -32.5 35
s-14.5 50.666 -14.5 81.999c0 32.667 4.83301 60.667 14.5 84s20.5 35 32.5 35h281c43.333 0 85.833 5.66699 127.5 17s83.834 28.666 126.501 51.999c40.667 22 80.834 45 120.501 69s77.167 45.333 112.5 64l-247.5 72c-71 20.667 -127.833 31 -170.5 31h-13
c-4.66699 0 -9.66699 -1.33301 -15 -4c-7.33301 -19.333 -13 -43.333 -17 -72s-6.66699 -54.667 -8 -78l-168 -41c2.66699 22 5.66699 45 9 69s7.16602 47.167 11.499 69.5s9.16602 43.5 14.499 63.5s10.666 36 15.999 48c5.33301 13.333 15.5 29.333 30.5 48
s32.5 36.167 52.5 52.5s40.5 30 61.5 41s41.167 16.5 60.5 16.5c26 0 57.5 -4.5 94.5 -13.5s83 -22 138 -39l201.5 -62.5c79.333 -24.667 175 -52.667 287 -84l-70 -190c-48.667 -2 -94.334 -13 -137.001 -33c20.667 -45.333 47.334 -72.666 80.001 -81.999
s65.334 -14 98.001 -14h135v-236h-141zM569 -665.998c-21.333 16.667 -47.5 34.5 -78.5 53.5s-60.833 36.167 -89.5 51.5l44.5 79c13 24 27.5 49.333 43.5 76c36 -13.333 68.667 -29.5 98 -48.5s54.333 -38.833 75 -59.5zM393 -439.998c-22 16 -50.333 34.999 -85 56.999
s-67.667 41 -99 57l100 176c37.333 -14.667 72.333 -32.167 105 -52.5s60.667 -42.166 84 -65.499zM668 -433.999c-22 17.333 -50.833 36.665 -86.5 57.998l-98.5 57l99 176c38 -15.333 73.333 -33.166 106 -53.499s60.667 -42.166 84 -65.499z" />
    <glyph glyph-name="uniFB89" unicode="&#x688;" horiz-adv-x="1032" arabic-form="final" 
d="M1032 0c-27.333 0 -54.667 1.33496 -82 4.00195s-54 8.83398 -80 18.501s-50.5 23.334 -73.5 41.001s-44.167 40.834 -63.5 69.501c-14.667 -38 -55.167 -71.667 -121.5 -101s-152.833 -44 -259.5 -44c-62.667 0 -112.834 5 -150.501 15s-66.667 24.667 -87 44
s-33.5 42.333 -39.5 69s-9 55.667 -9 87c0 35.333 2.33301 73.166 7 113.499s10.334 76.166 17.001 107.499l115 -21c-4 -28.667 -6 -56.667 -6 -84c0 -13.333 0.666992 -25.833 2 -37.5s7.5 -21.5 18.5 -29.5s28.667 -14.5 53 -19.5s60.5 -7.5 108.5 -7.5
c38 0 82.333 3.16699 133 9.5s104.667 20.166 162 41.499c-23.333 90.667 -51 180.667 -83 270s-66.667 173 -104 251l154 139c18 -36.667 35.5 -78.334 52.5 -125.001s32.667 -94.834 47 -144.501l41 -148.5l35.5 -139c14 -52 38 -88.833 72 -110.5s81 -32.5 141 -32.5
v-236zM538.999 1010c-52 0 -105.337 4.00195 -160.004 12.002l-23 117l84 -6c10 16 16.667 36.667 20 62s4.33301 51 3 77c0 42 -2 81.5 -6 118.5s-11 67.167 -21 90.5l84 73c12.667 -24 20.334 -56.833 23.001 -98.5s4 -91.167 4 -148.5v-29
c0 -10.667 -1.33301 -20.334 -4 -29.001c27.333 27.333 56.333 52 87 74s57.667 33 81 33c13.333 0 26.5 -5.16699 39.5 -15.5s24.667 -23.333 35 -39s18.833 -32.334 25.5 -50.001s11.334 -34.167 14.001 -49.5c1.33301 -5.33301 2.33301 -10.333 3 -15
s0.333984 -10.667 -0.999023 -18c-5.33301 -32.667 -16.166 -59.5 -32.499 -80.5s-36.5 -37.333 -60.5 -49s-51 -19.5 -81 -23.5s-60 -6 -90 -6h-24zM687.995 1245c-14.667 0 -38.167 -11.832 -70.5 -35.499s-63.5 -50.834 -93.5 -81.501h35c14 0 30.167 0.333008 48.5 1
s36.666 2.16699 54.999 4.5s36 5.5 53 9.5s31.167 9.33301 42.5 16c-6.66699 20.667 -17.167 40.167 -31.5 58.5s-27.166 27.5 -38.499 27.5z" />
    <glyph glyph-name="uniFB8B" unicode="&#x698;" horiz-adv-x="691" arabic-form="final" 
d="M685 0c-26 0 -50.3291 2.99707 -72.9961 8.99707s-43.334 16.667 -62.001 32c-8.66699 -76.667 -30 -146.667 -64 -210s-73.5 -117.5 -118.5 -162.5s-91.5 -79.833 -139.5 -104.5s-89.667 -37 -125 -37c-8 0 -21.833 3 -41.5 9s-41.834 13.5 -66.501 22.5
s-51 19.667 -79 32l-81 36.5l39 135c34 -6.66699 69.833 -11.667 107.5 -15s68.167 -5.66602 91.5 -6.99902c26.667 1.33301 57.5 11.833 92.5 31.5s68.5 44.167 100.5 73.5s60.333 62.5 85 99.5s41 73.167 49 108.5c-4 27.333 -10.833 57.833 -20.5 91.5
s-20.5 67.834 -32.5 102.501s-25.167 69.334 -39.5 104.001l-42.5 100l160 131l82 -224c17.333 -50 39.666 -82.5 66.999 -97.5s65.666 -23.167 114.999 -24.5h-2h4v-236h-6zM405.004 937.997c-23.333 16.667 -50.001 34.499 -80.001 53.499l-88 53.5
c16.667 27.333 31.334 53.333 44.001 78s27.334 50.667 44.001 78c35.333 -15.333 67.666 -32.166 96.999 -50.499s54.333 -38.5 75 -60.5zM309.003 665.996c-22 18 -50.501 37.498 -85.501 58.498s-68.167 39.833 -99.5 56.5l101 176
c36.667 -15.333 71.334 -33.166 104.001 -53.499s60.667 -42.166 84 -65.499zM583.002 671.994c-22 18 -50.667 37.498 -86 58.498l-98 56.5l98 176c38 -15.333 73.5 -33.166 106.5 -53.499s61.167 -42.166 84.5 -65.499z" />
    <glyph glyph-name="uniFB8D" unicode="&#x691;" horiz-adv-x="555" arabic-form="final" 
d="M549 0c-26 0 -50.3291 2.99707 -72.9961 8.99707s-43.334 16.667 -62.001 32c-8.66699 -76.667 -30 -146.667 -64 -210s-73.5 -117.5 -118.5 -162.5s-91.5 -79.833 -139.5 -104.5s-89.667 -37 -125 -37c-8 0 -21.833 3 -41.5 9s-41.834 13.5 -66.501 22.5
s-51 19.667 -79 32l-81 36.5l39 135c34 -6.66699 69.833 -11.667 107.5 -15s68.167 -5.66602 91.5 -6.99902c26.667 1.33301 57.5 11.833 92.5 31.5s68.5 44.167 100.5 73.5s60.333 62.5 85 99.5s41 73.167 49 108.5c-4 27.333 -10.833 57.833 -20.5 91.5
s-20.5 67.834 -32.5 102.501s-25.167 69.334 -39.5 104.001l-42.5 100l160 131l82 -224c17.333 -50 39.666 -82.5 66.999 -97.5s65.666 -23.167 114.999 -24.5h-2h4v-236h-6zM152.004 671.997c-52 0 -105.338 4.00293 -160.005 12.0029l-23 117l84 -6
c10 16 16.667 36.667 20 62s4.33301 51 3 77c0 42 -2.16699 81.5 -6.5 118.5s-11.166 67.167 -20.499 90.5l84 74c12.667 -24.667 20.334 -57.834 23.001 -99.501s4 -91.167 4 -148.5v-29c0 -10.667 -1.33301 -20.334 -4 -29.001c27.333 27.333 56.333 52 87 74
s57.667 33 81 33c13.333 0 26.5 -5.16699 39.5 -15.5s24.667 -23.333 35 -39s18.833 -32.334 25.5 -50.001s11.334 -34.167 14.001 -49.5c1.33301 -5.33301 2.33301 -10.333 3 -15s0.333984 -10.667 -0.999023 -18c-5.33301 -32.667 -16.166 -59.5 -32.499 -80.5
s-36.5 -37.333 -60.5 -49s-51 -19.5 -81 -23.5s-60 -6 -90 -6h-24zM300.999 907c-14.667 0 -38.167 -11.833 -70.5 -35.5s-63.5 -50.5 -93.5 -80.5h35c14 0 30.167 0.333008 48.5 1s36.666 2 54.999 4s36 5 53 9s31.167 9.33301 42.5 16
c-7.33301 20.667 -18.166 40.167 -32.499 58.5s-26.833 27.5 -37.5 27.5z" />
    <glyph glyph-name="uniFB8F" unicode="&#x6a9;" horiz-adv-x="1825" arabic-form="final" 
d="M1825 0c-53.333 0 -99.8311 6.16895 -139.498 18.502s-75.834 30 -108.501 53s-64 52 -94 87l-97 117.5c-10.667 -36.667 -26.5 -72 -47.5 -106s-39.167 -57.333 -54.5 -70c-24.667 -18.667 -59.5 -35.834 -104.5 -51.501s-96.5 -29.667 -154.5 -42
s-120.5 -22 -187.5 -29s-134.5 -10.5 -202.5 -10.5c-121.333 0 -225 10 -311 30s-147 50.333 -183 91c-23.333 28.667 -39.666 64.5 -48.999 107.5s-14 84.167 -14 123.5c0 115.333 25.333 239.666 76 372.999l118 -39c-10.667 -42 -19.834 -86.167 -27.501 -132.5
s-11.5 -88.833 -11.5 -127.5c0 -18.667 1.5 -36.667 4.5 -54s7.83301 -31.333 14.5 -42c9.33301 -16.667 28 -30.667 56 -42s61.5 -20.833 100.5 -28.5s81.333 -13.167 127 -16.5s91.167 -5 136.5 -5c42 0 89.667 2 143 6s106.666 9.5 159.999 16.5
s104.166 15.833 152.499 26.5s88.833 23.667 121.5 39c-23.333 84.667 -74.5 171 -153.5 259s-187.5 181 -325.5 279c2.66699 44 6.83398 83.333 12.501 118s14.167 65 25.5 91s27 48 47 66s45.667 31.667 77 41l629 190l-48 -215l-561 -174
c49.333 -35.333 100.333 -76.833 153 -124.5s103.5 -96.5 152.5 -146.5l138 -146.5l113.5 -127.5c30 -34 57 -61.833 81 -83.5s48 -38.667 72 -51s49 -20.833 75 -25.5s55.333 -7 88 -7v-236z" />
    <glyph glyph-name="uniFB90" unicode="&#x6a9;" horiz-adv-x="733" arabic-form="initial" 
d="M-47 117c0 32.667 4.83301 60.667 14.5 84s20.5 35 32.5 35h4h49c30 0 64.833 0.333008 104.5 1s80.667 3 123 7s83.666 9.66699 123.999 17s75.5 18 105.5 32c-23.333 83.333 -74.5 169.333 -153.5 258s-187.5 182 -325.5 280c2.66699 44 6.66699 83.333 12 118
s13.833 65 25.5 91s27.334 48 47.001 66s45.5 31.667 77.5 41l628 190l-47 -215l-561 -174c76.667 -57.333 143 -114.333 199 -171s102.333 -110.834 139 -162.501s63.834 -100.5 81.501 -146.5s26.5 -87.333 26.5 -124c0 -19.333 -4 -41.166 -12 -65.499
s-17.833 -48.166 -29.5 -71.499s-24.334 -44.5 -38.001 -63.5s-25.167 -33.5 -34.5 -43.5c-24.667 -21.333 -57.167 -38.5 -97.5 -51.5s-83.666 -23.333 -129.999 -31s-93.833 -12.5 -142.5 -14.5s-93.334 -3 -134.001 -3h-37h-4c-12 0 -22.833 11.667 -32.5 35
s-14.5 50.666 -14.5 81.999z" />
    <glyph glyph-name="uniFB91" unicode="&#x6a9;" horiz-adv-x="1085" arabic-form="medial" 
d="M1085 0c-52.667 0 -98.8311 6.16797 -138.498 18.501s-76 30 -109 53s-64.5 52 -94.5 87l-96 117.5c-10.667 -36.667 -26.667 -71.667 -48 -105s-39.333 -57 -54 -71c-24.667 -21.333 -57.167 -38.5 -97.5 -51.5s-83.666 -23.333 -129.999 -31
s-93.833 -12.5 -142.5 -14.5s-93.334 -3 -134.001 -3h-41c-12 0 -22.833 11.667 -32.5 35s-14.5 50.666 -14.5 81.999c0 32.667 4.83301 60.667 14.5 84s20.5 35 32.5 35h4h49c30 0 64.833 0.333008 104.5 1s80.667 3 123 7s83.666 9.66699 123.999 17s75.5 18 105.5 32
c-23.333 83.333 -74.5 169.333 -153.5 258s-187.5 182 -325.5 280c2.66699 44 6.66699 83.333 12 118s13.833 65 25.5 91s27.334 48 47.001 66s45.5 31.667 77.5 41l628 190l-47 -215l-561 -174c49.333 -35.333 100.166 -76.833 152.499 -124.5
s103.166 -96.5 152.499 -146.5l138.5 -146.5l113.5 -127.5c30 -34 57 -61.833 81 -83.5s47.833 -38.667 71.5 -51s48.5 -20.833 74.5 -25.5s55.333 -7 88 -7v-236z" />
    <glyph glyph-name="uniFB93" unicode="&#x6af;" horiz-adv-x="1825" arabic-form="final" 
d="M1825 0c-53.333 0 -99.8311 6.16895 -139.498 18.502s-75.834 30 -108.501 53s-64 52 -94 87l-97 117.5c-10.667 -36.667 -26.5 -72 -47.5 -106s-39.167 -57.333 -54.5 -70c-24.667 -18.667 -59.5 -35.834 -104.5 -51.501s-96.5 -29.667 -154.5 -42
s-120.5 -22 -187.5 -29s-134.5 -10.5 -202.5 -10.5c-121.333 0 -225 10 -311 30s-147 50.333 -183 91c-23.333 28.667 -39.666 64.5 -48.999 107.5s-14 84.167 -14 123.5c0 115.333 25.333 239.666 76 372.999l118 -39c-10.667 -42 -19.834 -86.167 -27.501 -132.5
s-11.5 -88.833 -11.5 -127.5c0 -18.667 1.5 -36.667 4.5 -54s7.83301 -31.333 14.5 -42c9.33301 -16.667 28 -30.667 56 -42s61.5 -20.833 100.5 -28.5s81.333 -13.167 127 -16.5s91.167 -5 136.5 -5c42 0 89.667 2 143 6s106.666 9.5 159.999 16.5
s104.166 15.833 152.499 26.5s88.833 23.667 121.5 39c-23.333 84.667 -74.5 171 -153.5 259s-187.5 181 -325.5 279c2.66699 44 6.83398 83.333 12.501 118s14.167 65 25.5 91s27 48 47 66s45.667 31.667 77 41l629 190l-48 -215l-561 -174
c49.333 -35.333 100.333 -76.833 153 -124.5s103.5 -96.5 152.5 -146.5l138 -146.5l113.5 -127.5c30 -34 57 -61.833 81 -83.5s48 -38.667 72 -51s49 -20.833 75 -25.5s55.333 -7 88 -7v-236zM907.002 1360l451 143l-17 -121l-450 -143z" />
    <glyph glyph-name="uniFB94" unicode="&#x6af;" horiz-adv-x="737" arabic-form="initial" 
d="M172 1360l451 143l-17 -121l-450 -143zM-47 117c0 32.667 4.83301 60.667 14.5 84s20.5 35 32.5 35h4h49c30 0 64.833 0.333008 104.5 1s80.667 3 123 7s83.666 9.66699 123.999 17s75.5 18 105.5 32c-23.333 83.333 -74.5 169.333 -153.5 258s-187.5 182 -325.5 280
c2.66699 44 6.66699 83.333 12 118s13.833 65 25.5 91s27.334 48 47.001 66s45.5 31.667 77.5 41l628 190l-47 -215l-561 -174c76.667 -57.333 143 -114.333 199 -171s102.333 -110.834 139 -162.501s63.834 -100.5 81.501 -146.5s26.5 -87.333 26.5 -124
c0 -19.333 -4 -41.166 -12 -65.499s-17.833 -48.166 -29.5 -71.499s-24.334 -44.5 -38.001 -63.5s-25.167 -33.5 -34.5 -43.5c-24.667 -21.333 -57.167 -38.5 -97.5 -51.5s-83.666 -23.333 -129.999 -31s-93.833 -12.5 -142.5 -14.5s-93.334 -3 -134.001 -3h-37h-4
c-12 0 -22.833 11.667 -32.5 35s-14.5 50.666 -14.5 81.999z" />
    <glyph glyph-name="uniFB95" unicode="&#x6af;" horiz-adv-x="1085" arabic-form="medial" 
d="M1085 0c-52.667 0 -98.8311 6.16797 -138.498 18.501s-76 30 -109 53s-64.5 52 -94.5 87l-96 117.5c-10.667 -36.667 -26.667 -71.667 -48 -105s-39.333 -57 -54 -71c-24.667 -21.333 -57.167 -38.5 -97.5 -51.5s-83.666 -23.333 -129.999 -31
s-93.833 -12.5 -142.5 -14.5s-93.334 -3 -134.001 -3h-41c-12 0 -22.833 11.667 -32.5 35s-14.5 50.666 -14.5 81.999c0 32.667 4.83301 60.667 14.5 84s20.5 35 32.5 35h4h49c30 0 64.833 0.333008 104.5 1s80.667 3 123 7s83.666 9.66699 123.999 17s75.5 18 105.5 32
c-23.333 83.333 -74.5 169.333 -153.5 258s-187.5 182 -325.5 280c2.66699 44 6.66699 83.333 12 118s13.833 65 25.5 91s27.334 48 47.001 66s45.5 31.667 77.5 41l628 190l-47 -215l-561 -174c49.333 -35.333 100.166 -76.833 152.499 -124.5
s103.166 -96.5 152.499 -146.5l138.5 -146.5l113.5 -127.5c30 -34 57 -61.833 81 -83.5s47.833 -38.667 71.5 -51s48.5 -20.833 74.5 -25.5s55.333 -7 88 -7v-236zM172.003 1360l451 143l-17 -121l-450 -143z" />
    </font>
</defs>
</svg>
